<?xml version="1.0" encoding="UTF-8" standalone="no"?>
<!DOCTYPE svg PUBLIC "-//W3C//DTD SVG 1.1//EN"
 "http://www.w3.org/Graphics/SVG/1.1/DTD/svg11.dtd">
<!-- Generated by graphviz version 2.44.0 ()
 -->
<!-- Title: G Pages: 1 -->
<svg width="654pt" height="543pt"
 viewBox="0.00 0.00 654.00 543.00" xmlns="http://www.w3.org/2000/svg" xmlns:xlink="http://www.w3.org/1999/xlink">
<g id="graph0" class="graph" transform="scale(1 1) rotate(0) translate(4 539)">
<title>G</title>
<polygon fill="white" stroke="#000000" points="-4,4 -4,-539 650,-539 650,4 -4,4"/>
<g id="clust1" class="cluster">
<title>cluster_main</title>
<path fill="#b3e2cd" stroke="#b3e2cd" d="M20,-8C20,-8 184,-8 184,-8 190,-8 196,-14 196,-20 196,-20 196,-392 196,-392 196,-398 190,-404 184,-404 184,-404 20,-404 20,-404 14,-404 8,-398 8,-392 8,-392 8,-20 8,-20 8,-14 14,-8 20,-8"/>
<text text-anchor="middle" x="102" y="-388.8" font-family="Helvetica,sans-Serif" font-size="14.00">Revision 0</text>
</g>
<g id="clust4" class="cluster">
<title>cluster_rev1</title>
<path fill="#cbd5e8" stroke="#b3e2cd" d="M216,-8C216,-8 322,-8 322,-8 328,-8 334,-14 334,-20 334,-20 334,-173 334,-173 334,-179 328,-185 322,-185 322,-185 216,-185 216,-185 210,-185 204,-179 204,-173 204,-173 204,-20 204,-20 204,-14 210,-8 216,-8"/>
<text text-anchor="middle" x="269" y="-169.8" font-family="Helvetica,sans-Serif" font-size="14.00">Revision 1</text>
<text text-anchor="middle" x="269" y="-154.8" font-family="Helvetica,sans-Serif" font-size="14.00">Partial</text>
</g>
<g id="clust5" class="cluster">
<title>cluster_rev2</title>
<path fill="#f4cae4" stroke="#b3e2cd" d="M402,-8C402,-8 626,-8 626,-8 632,-8 638,-14 638,-20 638,-20 638,-173 638,-173 638,-179 632,-185 626,-185 626,-185 402,-185 402,-185 396,-185 390,-179 390,-173 390,-173 390,-20 390,-20 390,-14 396,-8 402,-8"/>
<text text-anchor="middle" x="514" y="-169.8" font-family="Helvetica,sans-Serif" font-size="14.00">Revision 2</text>
<text text-anchor="middle" x="514" y="-154.8" font-family="Helvetica,sans-Serif" font-size="14.00">Partial</text>
</g>
<g id="clust7" class="cluster">
<title>cluster_attach</title>
<path fill="#fdcdac" stroke="#b3e2cd" d="M216,-329C216,-329 344,-329 344,-329 350,-329 356,-335 356,-341 356,-341 356,-515 356,-515 356,-521 350,-527 344,-527 344,-527 216,-527 216,-527 210,-527 204,-521 204,-515 204,-515 204,-341 204,-341 204,-335 210,-329 216,-329"/>
<text text-anchor="middle" x="280" y="-511.8" font-family="Helvetica,sans-Serif" font-size="14.00">Revision 3</text>
<text text-anchor="middle" x="280" y="-496.8" font-family="Helvetica,sans-Serif" font-size="14.00">Attached, Complete</text>
</g>
<!-- a -->
<g id="node1" class="node">
<title>a</title>
<path fill="white" stroke="black" d="M176,-373C176,-373 146,-373 146,-373 140,-373 134,-367 134,-361 134,-361 134,-349 134,-349 134,-343 140,-337 146,-337 146,-337 176,-337 176,-337 182,-337 188,-343 188,-349 188,-349 188,-361 188,-361 188,-367 182,-373 176,-373"/>
<text text-anchor="middle" x="161" y="-351.3" font-family="Times,serif" font-size="14.00">Root</text>
</g>
<!-- c -->
<g id="node2" class="node">
<title>c</title>
<path fill="white" stroke="black" d="M176,-248C176,-248 146,-248 146,-248 140,-248 134,-242 134,-236 134,-236 134,-224 134,-224 134,-218 140,-212 146,-212 146,-212 176,-212 176,-212 182,-212 188,-218 188,-224 188,-224 188,-236 188,-236 188,-242 182,-248 176,-248"/>
<text text-anchor="middle" x="161" y="-226.3" font-family="Times,serif" font-size="14.00">Docs/</text>
</g>
<!-- a&#45;&gt;c -->
<g id="edge1" class="edge">
<title>a&#45;&gt;c</title>
<path fill="none" stroke="black" d="M161,-336.9C161,-316.63 161,-282.6 161,-258.59"/>
<polygon fill="black" stroke="black" points="164.5,-258.35 161,-248.35 157.5,-258.35 164.5,-258.35"/>
</g>
<!-- d -->
<g id="node3" class="node">
<title>d</title>
<path fill="white" stroke="black" d="M103.5,-248C103.5,-248 50.5,-248 50.5,-248 44.5,-248 38.5,-242 38.5,-236 38.5,-236 38.5,-224 38.5,-224 38.5,-218 44.5,-212 50.5,-212 50.5,-212 103.5,-212 103.5,-212 109.5,-212 115.5,-218 115.5,-224 115.5,-224 115.5,-236 115.5,-236 115.5,-242 109.5,-248 103.5,-248"/>
<text text-anchor="middle" x="77" y="-226.3" font-family="Times,serif" font-size="14.00">bach.mp3</text>
</g>
<!-- a&#45;&gt;d -->
<g id="edge2" class="edge">
<title>a&#45;&gt;d</title>
<path fill="none" stroke="black" d="M149.32,-336.9C135.11,-316.09 110.98,-280.75 94.53,-256.67"/>
<polygon fill="black" stroke="black" points="97.38,-254.64 88.85,-248.35 91.6,-258.59 97.38,-254.64"/>
</g>
<!-- f -->
<g id="node4" class="node">
<title>f</title>
<path fill="white" stroke="black" d="M96,-52C96,-52 28,-52 28,-52 22,-52 16,-46 16,-40 16,-40 16,-28 16,-28 16,-22 22,-16 28,-16 28,-16 96,-16 96,-16 102,-16 108,-22 108,-28 108,-28 108,-40 108,-40 108,-46 102,-52 96,-52"/>
<text text-anchor="middle" x="62" y="-30.3" font-family="Times,serif" font-size="14.00">Thesis.tex</text>
</g>
<!-- c&#45;&gt;f -->
<g id="edge3" class="edge">
<title>c&#45;&gt;f</title>
<path fill="none" stroke="black" d="M152.21,-211.78C134.82,-177.7 95.91,-101.45 75.34,-61.14"/>
<polygon fill="black" stroke="black" points="78.43,-59.49 70.77,-52.18 72.19,-62.68 78.43,-59.49"/>
</g>
<!-- e -->
<g id="node5" class="node">
<title>e</title>
<path fill="white" stroke="black" d="M176,-52C176,-52 138,-52 138,-52 132,-52 126,-46 126,-40 126,-40 126,-28 126,-28 126,-22 132,-16 138,-16 138,-16 176,-16 176,-16 182,-16 188,-22 188,-28 188,-28 188,-40 188,-40 188,-46 182,-52 176,-52"/>
<text text-anchor="middle" x="157" y="-30.3" font-family="Times,serif" font-size="14.00">Todos/</text>
</g>
<!-- c&#45;&gt;e -->
<g id="edge4" class="edge">
<title>c&#45;&gt;e</title>
<path fill="none" stroke="black" d="M160.65,-211.78C159.95,-178.06 158.4,-103.06 157.57,-62.43"/>
<polygon fill="black" stroke="black" points="161.06,-62.1 157.35,-52.18 154.06,-62.25 161.06,-62.1"/>
</g>
<!-- i -->
<g id="node6" class="node">
<title>i</title>
<path fill="white" stroke="black" d="M262,-139C262,-139 224,-139 224,-139 218,-139 212,-133 212,-127 212,-127 212,-115 212,-115 212,-109 218,-103 224,-103 224,-103 262,-103 262,-103 268,-103 274,-109 274,-115 274,-115 274,-127 274,-127 274,-133 268,-139 262,-139"/>
<text text-anchor="middle" x="243" y="-117.3" font-family="Times,serif" font-size="14.00">Todos/</text>
</g>
<!-- i&#45;&gt;e -->
<g id="edge11" class="edge">
<title>i&#45;&gt;e</title>
<path fill="none" stroke="grey" stroke-width="2" stroke-dasharray="5,2" d="M225.6,-102.8C213.01,-90.36 195.82,-73.36 181.79,-59.5"/>
<polygon fill="grey" stroke="grey" stroke-width="2" points="183.95,-56.72 174.38,-52.18 179.03,-61.69 183.95,-56.72"/>
<text text-anchor="middle" x="220.5" y="-73.8" font-family="Helvetica,sans-Serif" font-size="14.00" fill="grey">prev</text>
</g>
<!-- j -->
<g id="node7" class="node">
<title>j</title>
<path fill="white" stroke="black" d="M314,-52C314,-52 224,-52 224,-52 218,-52 212,-46 212,-40 212,-40 212,-28 212,-28 212,-22 218,-16 224,-16 224,-16 314,-16 314,-16 320,-16 326,-22 326,-28 326,-28 326,-40 326,-40 326,-46 320,-52 314,-52"/>
<text text-anchor="middle" x="269" y="-30.3" font-family="Times,serif" font-size="14.00">groceries.org</text>
</g>
<!-- i&#45;&gt;j -->
<g id="edge5" class="edge">
<title>i&#45;&gt;j</title>
<path fill="none" stroke="black" d="M248.26,-102.8C251.86,-91.05 256.69,-75.24 260.79,-61.84"/>
<polygon fill="black" stroke="black" points="264.17,-62.76 263.75,-52.18 257.47,-60.71 264.17,-62.76"/>
</g>
<!-- l -->
<g id="node9" class="node">
<title>l</title>
<path fill="white" stroke="black" d="M500,-52C500,-52 410,-52 410,-52 404,-52 398,-46 398,-40 398,-40 398,-28 398,-28 398,-22 404,-16 410,-16 410,-16 500,-16 500,-16 506,-16 512,-22 512,-28 512,-28 512,-40 512,-40 512,-46 506,-52 500,-52"/>
<text text-anchor="middle" x="455" y="-30.3" font-family="Times,serif" font-size="14.00">groceries.org</text>
</g>
<!-- i&#45;&gt;l -->
<!-- j&#45;&gt;l -->
<!-- j&#45;&gt;l -->
<!-- k -->
<g id="node8" class="node">
<title>k</title>
<path fill="white" stroke="black" d="M504,-139C504,-139 466,-139 466,-139 460,-139 454,-133 454,-127 454,-127 454,-115 454,-115 454,-109 460,-103 466,-103 466,-103 504,-103 504,-103 510,-103 516,-109 516,-115 516,-115 516,-127 516,-127 516,-133 510,-139 504,-139"/>
<text text-anchor="middle" x="485" y="-117.3" font-family="Times,serif" font-size="14.00">Todos/</text>
</g>
<!-- k&#45;&gt;i -->
<g id="edge12" class="edge">
<title>k&#45;&gt;i</title>
<path fill="none" stroke="grey" stroke-width="2" stroke-dasharray="5,2" d="M453.98,-121C410.75,-121 332.31,-121 284.21,-121"/>
<polygon fill="grey" stroke="grey" stroke-width="2" points="284.14,-117.5 274.14,-121 284.14,-124.5 284.14,-117.5"/>
<text text-anchor="middle" x="364" y="-127.8" font-family="Helvetica,sans-Serif" font-size="14.00" fill="grey">prev</text>
</g>
<!-- k&#45;&gt;l -->
<g id="edge6" class="edge">
<title>k&#45;&gt;l</title>
<path fill="none" stroke="black" d="M478.93,-102.8C474.78,-91.05 469.2,-75.24 464.47,-61.84"/>
<polygon fill="black" stroke="black" points="467.69,-60.44 461.06,-52.18 461.09,-62.77 467.69,-60.44"/>
</g>
<!-- m -->
<g id="node10" class="node">
<title>m</title>
<path fill="white" stroke="black" d="M617.5,-52C617.5,-52 542.5,-52 542.5,-52 536.5,-52 530.5,-46 530.5,-40 530.5,-40 530.5,-28 530.5,-28 530.5,-22 536.5,-16 542.5,-16 542.5,-16 617.5,-16 617.5,-16 623.5,-16 629.5,-22 629.5,-28 629.5,-28 629.5,-40 629.5,-40 629.5,-46 623.5,-52 617.5,-52"/>
<text text-anchor="middle" x="580" y="-30.3" font-family="Times,serif" font-size="14.00">shopping.md</text>
</g>
<!-- k&#45;&gt;m -->
<g id="edge7" class="edge">
<title>k&#45;&gt;m</title>
<path fill="none" stroke="black" d="M504.22,-102.8C518.26,-90.24 537.47,-73.05 553.04,-59.12"/>
<polygon fill="black" stroke="black" points="555.69,-61.45 560.8,-52.18 551.02,-56.24 555.69,-61.45"/>
</g>
<!-- l&#45;&gt;j -->
<g id="edge15" class="edge">
<title>l&#45;&gt;j</title>
<path fill="none" stroke="grey" stroke-width="2" stroke-dasharray="5,2" d="M397.72,-34C378.24,-34 356.3,-34 336.12,-34"/>
<polygon fill="grey" stroke="grey" stroke-width="2" points="336.07,-30.5 326.07,-34 336.07,-37.5 336.07,-30.5"/>
<text text-anchor="middle" x="362" y="-40.8" font-family="Helvetica,sans-Serif" font-size="14.00" fill="grey">prev</text>
</g>
<!-- o -->
<g id="node11" class="node">
<title>o</title>
<path fill="white" stroke="black" d="M286,-373C286,-373 256,-373 256,-373 250,-373 244,-367 244,-361 244,-361 244,-349 244,-349 244,-343 250,-337 256,-337 256,-337 286,-337 286,-337 292,-337 298,-343 298,-349 298,-349 298,-361 298,-361 298,-367 292,-373 286,-373"/>
<text text-anchor="middle" x="271" y="-351.3" font-family="Times,serif" font-size="14.00">Docs/</text>
</g>
<!-- o&#45;&gt;c -->
<g id="edge14" class="edge">
<title>o&#45;&gt;c</title>
<path fill="none" stroke="grey" stroke-width="2" stroke-dasharray="5,2" d="M266.67,-336.82C261.05,-317.52 249.57,-286.23 230,-266 221.03,-256.72 209.07,-249.48 197.63,-244.05"/>
<polygon fill="grey" stroke="grey" stroke-width="2" points="198.78,-240.73 188.22,-239.91 195.96,-247.14 198.78,-240.73"/>
<text text-anchor="middle" x="267.5" y="-288.8" font-family="Helvetica,sans-Serif" font-size="14.00" fill="grey">prev</text>
</g>
<!-- o&#45;&gt;k -->
<g id="edge9" class="edge">
<title>o&#45;&gt;k</title>
<path fill="none" stroke="black" stroke-width="2" d="M286.74,-336.94C324.15,-296.38 418.53,-194.06 462.19,-146.73"/>
<polygon fill="black" stroke="black" stroke-width="2" points="465.03,-148.81 469.24,-139.08 459.89,-144.06 465.03,-148.81"/>
</g>
<!-- n -->
<g id="node12" class="node">
<title>n</title>
<path fill="white" stroke="black" d="M277.5,-481C277.5,-481 224.5,-481 224.5,-481 218.5,-481 212.5,-475 212.5,-469 212.5,-469 212.5,-457 212.5,-457 212.5,-451 218.5,-445 224.5,-445 224.5,-445 277.5,-445 277.5,-445 283.5,-445 289.5,-451 289.5,-457 289.5,-457 289.5,-469 289.5,-469 289.5,-475 283.5,-481 277.5,-481"/>
<text text-anchor="middle" x="251" y="-459.3" font-family="Times,serif" font-size="14.00">New Root</text>
</g>
<!-- n&#45;&gt;a -->
<g id="edge13" class="edge">
<title>n&#45;&gt;a</title>
<path fill="none" stroke="grey" stroke-width="2" stroke-dasharray="5,2" d="M212.45,-453.8C197.27,-448.61 181.08,-440.28 171,-427 161.71,-414.75 159.05,-397.79 158.79,-383.52"/>
<polygon fill="grey" stroke="grey" stroke-width="2" points="162.3,-383.32 158.99,-373.26 155.3,-383.19 162.3,-383.32"/>
<text text-anchor="middle" x="186.5" y="-415.8" font-family="Helvetica,sans-Serif" font-size="14.00" fill="grey">prev</text>
</g>
<!-- n&#45;&gt;d -->
<g id="edge10" class="edge">
<title>n&#45;&gt;d</title>
<path fill="none" stroke="black" stroke-width="2" d="M246.94,-444.67C240.04,-417.89 224.08,-365.69 197,-329 174.33,-298.28 139.9,-271.5 113.73,-253.73"/>
<polygon fill="black" stroke="black" stroke-width="2" points="115.46,-250.68 105.2,-248.06 111.59,-256.51 115.46,-250.68"/>
</g>
<!-- n&#45;&gt;o -->
<g id="edge8" class="edge">
<title>n&#45;&gt;o</title>
<path fill="none" stroke="black" d="M254.21,-444.97C257.34,-428.38 262.15,-402.88 265.82,-383.43"/>
<polygon fill="black" stroke="black" points="269.31,-383.82 267.73,-373.34 262.43,-382.52 269.31,-383.82"/>
</g>
</g>
</svg>
