<?xml version="1.0" encoding="UTF-8" standalone="no"?>
<!DOCTYPE svg PUBLIC "-//W3C//DTD SVG 1.1//EN"
 "http://www.w3.org/Graphics/SVG/1.1/DTD/svg11.dtd">
<!-- Generated by graphviz version 2.44.0 ()
 -->
<!-- Title: G Pages: 1 -->
<svg width="654pt" height="558pt"
 viewBox="0.00 0.00 654.00 558.00" xmlns="http://www.w3.org/2000/svg" xmlns:xlink="http://www.w3.org/1999/xlink">
<g id="graph0" class="graph" transform="scale(1 1) rotate(0) translate(4 554)">
<title>G</title>
<polygon fill="white" stroke="#000000" points="-4,4 -4,-554 650,-554 650,4 -4,4"/>
<g id="clust1" class="cluster">
<title>cluster_main</title>
<path fill="#b3e2cd" stroke="#b3e2cd" d="M20,-8C20,-8 184,-8 184,-8 190,-8 196,-14 196,-20 196,-20 196,-407 196,-407 196,-413 190,-419 184,-419 184,-419 20,-419 20,-419 14,-419 8,-413 8,-407 8,-407 8,-20 8,-20 8,-14 14,-8 20,-8"/>
<text text-anchor="middle" x="102" y="-403.8" font-family="Helvetica,sans-Serif" font-size="14.00">Revision 0</text>
<text text-anchor="middle" x="102" y="-388.8" font-family="Helvetica,sans-Serif" font-size="14.00">Original</text>
</g>
<g id="clust4" class="cluster">
<title>cluster_rev1</title>
<path fill="#cbd5e8" stroke="#b3e2cd" d="M216,-8C216,-8 322,-8 322,-8 328,-8 334,-14 334,-20 334,-20 334,-173 334,-173 334,-179 328,-185 322,-185 322,-185 216,-185 216,-185 210,-185 204,-179 204,-173 204,-173 204,-20 204,-20 204,-14 210,-8 216,-8"/>
<text text-anchor="middle" x="269" y="-169.8" font-family="Helvetica,sans-Serif" font-size="14.00">Revision 1</text>
<text text-anchor="middle" x="269" y="-154.8" font-family="Helvetica,sans-Serif" font-size="14.00">Partial</text>
</g>
<g id="clust5" class="cluster">
<title>cluster_rev2</title>
<path fill="#f4cae4" stroke="#b3e2cd" d="M402,-8C402,-8 626,-8 626,-8 632,-8 638,-14 638,-20 638,-20 638,-173 638,-173 638,-179 632,-185 626,-185 626,-185 402,-185 402,-185 396,-185 390,-179 390,-173 390,-173 390,-20 390,-20 390,-14 396,-8 402,-8"/>
<text text-anchor="middle" x="514" y="-169.8" font-family="Helvetica,sans-Serif" font-size="14.00">Revision 2</text>
<text text-anchor="middle" x="514" y="-154.8" font-family="Helvetica,sans-Serif" font-size="14.00">Partial</text>
</g>
<g id="clust7" class="cluster">
<title>cluster_attach</title>
<path fill="#fdcdac" stroke="#b3e2cd" d="M216,-329C216,-329 344,-329 344,-329 350,-329 356,-335 356,-341 356,-341 356,-530 356,-530 356,-536 350,-542 344,-542 344,-542 216,-542 216,-542 210,-542 204,-536 204,-530 204,-530 204,-341 204,-341 204,-335 210,-329 216,-329"/>
<text text-anchor="middle" x="280" y="-526.8" font-family="Helvetica,sans-Serif" font-size="14.00">Revision 3</text>
<text text-anchor="middle" x="280" y="-511.8" font-family="Helvetica,sans-Serif" font-size="14.00">Attached, Complete</text>
</g>
<!-- a -->
<g id="node1" class="node">
<title>a</title>
<path fill="white" stroke="black" d="M176,-373C176,-373 146,-373 146,-373 140,-373 134,-367 134,-361 134,-361 134,-349 134,-349 134,-343 140,-337 146,-337 146,-337 176,-337 176,-337 182,-337 188,-343 188,-349 188,-349 188,-361 188,-361 188,-367 182,-373 176,-373"/>
<text text-anchor="middle" x="161" y="-351.3" font-family="Times,serif" font-size="14.00">Root</text>
</g>
<!-- c -->
<g id="node2" class="node">
<title>c</title>
<path fill="white" stroke="black" d="M170,-248C170,-248 140,-248 140,-248 134,-248 128,-242 128,-236 128,-236 128,-224 128,-224 128,-218 134,-212 140,-212 140,-212 170,-212 170,-212 176,-212 182,-218 182,-224 182,-224 182,-236 182,-236 182,-242 176,-248 170,-248"/>
<text text-anchor="middle" x="155" y="-226.3" font-family="Times,serif" font-size="14.00">Docs/</text>
</g>
<!-- a&#45;&gt;c -->
<g id="edge1" class="edge">
<title>a&#45;&gt;c</title>
<path fill="none" stroke="black" d="M149.98,-336.79C144.14,-326.55 137.64,-313.05 135,-300 132.14,-285.82 135.97,-270.32 141.03,-257.62"/>
<polygon fill="black" stroke="black" points="144.39,-258.66 145.24,-248.1 137.99,-255.83 144.39,-258.66"/>
</g>
<!-- d -->
<g id="node3" class="node">
<title>d</title>
<path fill="white" stroke="black" d="M97.5,-248C97.5,-248 44.5,-248 44.5,-248 38.5,-248 32.5,-242 32.5,-236 32.5,-236 32.5,-224 32.5,-224 32.5,-218 38.5,-212 44.5,-212 44.5,-212 97.5,-212 97.5,-212 103.5,-212 109.5,-218 109.5,-224 109.5,-224 109.5,-236 109.5,-236 109.5,-242 103.5,-248 97.5,-248"/>
<text text-anchor="middle" x="71" y="-226.3" font-family="Times,serif" font-size="14.00">bach.mp3</text>
</g>
<!-- a&#45;&gt;d -->
<g id="edge2" class="edge">
<title>a&#45;&gt;d</title>
<path fill="none" stroke="black" d="M148.49,-336.9C133.26,-316.09 107.4,-280.75 89.78,-256.67"/>
<polygon fill="black" stroke="black" points="92.43,-254.36 83.7,-248.35 86.78,-258.49 92.43,-254.36"/>
</g>
<!-- f -->
<g id="node4" class="node">
<title>f</title>
<path fill="white" stroke="black" d="M96,-52C96,-52 28,-52 28,-52 22,-52 16,-46 16,-40 16,-40 16,-28 16,-28 16,-22 22,-16 28,-16 28,-16 96,-16 96,-16 102,-16 108,-22 108,-28 108,-28 108,-40 108,-40 108,-46 102,-52 96,-52"/>
<text text-anchor="middle" x="62" y="-30.3" font-family="Times,serif" font-size="14.00">Thesis.tex</text>
</g>
<!-- c&#45;&gt;f -->
<g id="edge3" class="edge">
<title>c&#45;&gt;f</title>
<path fill="none" stroke="black" d="M146.75,-211.78C130.44,-177.77 94.01,-101.78 74.65,-61.4"/>
<polygon fill="black" stroke="black" points="77.71,-59.68 70.23,-52.18 71.4,-62.71 77.71,-59.68"/>
</g>
<!-- e -->
<g id="node5" class="node">
<title>e</title>
<path fill="white" stroke="black" d="M176,-52C176,-52 138,-52 138,-52 132,-52 126,-46 126,-40 126,-40 126,-28 126,-28 126,-22 132,-16 138,-16 138,-16 176,-16 176,-16 182,-16 188,-22 188,-28 188,-28 188,-40 188,-40 188,-46 182,-52 176,-52"/>
<text text-anchor="middle" x="157" y="-30.3" font-family="Times,serif" font-size="14.00">Todos/</text>
</g>
<!-- c&#45;&gt;e -->
<g id="edge4" class="edge">
<title>c&#45;&gt;e</title>
<path fill="none" stroke="black" d="M155.18,-211.78C155.53,-178.06 156.3,-103.06 156.72,-62.43"/>
<polygon fill="black" stroke="black" points="160.22,-62.21 156.82,-52.18 153.22,-62.14 160.22,-62.21"/>
</g>
<!-- i -->
<g id="node6" class="node">
<title>i</title>
<path fill="white" stroke="black" d="M262,-139C262,-139 224,-139 224,-139 218,-139 212,-133 212,-127 212,-127 212,-115 212,-115 212,-109 218,-103 224,-103 224,-103 262,-103 262,-103 268,-103 274,-109 274,-115 274,-115 274,-127 274,-127 274,-133 268,-139 262,-139"/>
<text text-anchor="middle" x="243" y="-117.3" font-family="Times,serif" font-size="14.00">Todos/</text>
</g>
<!-- i&#45;&gt;e -->
<g id="edge12" class="edge">
<title>i&#45;&gt;e</title>
<path fill="none" stroke="grey" stroke-width="2" stroke-dasharray="5,2" d="M228.53,-102.82C219.96,-92.93 208.71,-80.43 198,-70 194.24,-66.34 190.16,-62.6 186.08,-59"/>
<polygon fill="grey" stroke="grey" stroke-width="2" points="188.18,-56.18 178.33,-52.29 183.6,-61.48 188.18,-56.18"/>
<text text-anchor="middle" x="227.5" y="-73.8" font-family="Helvetica,sans-Serif" font-size="14.00" fill="grey">prev</text>
</g>
<!-- j -->
<g id="node7" class="node">
<title>j</title>
<path fill="white" stroke="black" d="M314,-52C314,-52 224,-52 224,-52 218,-52 212,-46 212,-40 212,-40 212,-28 212,-28 212,-22 218,-16 224,-16 224,-16 314,-16 314,-16 320,-16 326,-22 326,-28 326,-28 326,-40 326,-40 326,-46 320,-52 314,-52"/>
<text text-anchor="middle" x="269" y="-30.3" font-family="Times,serif" font-size="14.00">groceries.org</text>
</g>
<!-- i&#45;&gt;j -->
<g id="edge5" class="edge">
<title>i&#45;&gt;j</title>
<path fill="none" stroke="black" d="M251.79,-102.87C254.39,-97.28 257.07,-90.98 259,-85 261.34,-77.79 263.23,-69.8 264.71,-62.37"/>
<polygon fill="black" stroke="black" points="268.18,-62.84 266.54,-52.38 261.3,-61.58 268.18,-62.84"/>
</g>
<!-- l -->
<g id="node9" class="node">
<title>l</title>
<path fill="white" stroke="black" d="M500,-52C500,-52 410,-52 410,-52 404,-52 398,-46 398,-40 398,-40 398,-28 398,-28 398,-22 404,-16 410,-16 410,-16 500,-16 500,-16 506,-16 512,-22 512,-28 512,-28 512,-40 512,-40 512,-46 506,-52 500,-52"/>
<text text-anchor="middle" x="455" y="-30.3" font-family="Times,serif" font-size="14.00">groceries.org</text>
</g>
<!-- i&#45;&gt;l -->
<!-- j&#45;&gt;l -->
<!-- j&#45;&gt;l -->
<!-- k -->
<g id="node8" class="node">
<title>k</title>
<path fill="white" stroke="black" d="M504,-139C504,-139 466,-139 466,-139 460,-139 454,-133 454,-127 454,-127 454,-115 454,-115 454,-109 460,-103 466,-103 466,-103 504,-103 504,-103 510,-103 516,-109 516,-115 516,-115 516,-127 516,-127 516,-133 510,-139 504,-139"/>
<text text-anchor="middle" x="485" y="-117.3" font-family="Times,serif" font-size="14.00">Todos/</text>
</g>
<!-- k&#45;&gt;i -->
<g id="edge13" class="edge">
<title>k&#45;&gt;i</title>
<path fill="none" stroke="grey" stroke-width="2" stroke-dasharray="5,2" d="M453.98,-121C410.75,-121 332.31,-121 284.21,-121"/>
<polygon fill="grey" stroke="grey" stroke-width="2" points="284.14,-117.5 274.14,-121 284.14,-124.5 284.14,-117.5"/>
<text text-anchor="middle" x="364" y="-127.8" font-family="Helvetica,sans-Serif" font-size="14.00" fill="grey">prev</text>
</g>
<!-- k&#45;&gt;l -->
<g id="edge6" class="edge">
<title>k&#45;&gt;l</title>
<path fill="none" stroke="black" d="M478.93,-102.8C474.78,-91.05 469.2,-75.24 464.47,-61.84"/>
<polygon fill="black" stroke="black" points="467.69,-60.44 461.06,-52.18 461.09,-62.77 467.69,-60.44"/>
</g>
<!-- m -->
<g id="node10" class="node">
<title>m</title>
<path fill="white" stroke="black" d="M617.5,-52C617.5,-52 542.5,-52 542.5,-52 536.5,-52 530.5,-46 530.5,-40 530.5,-40 530.5,-28 530.5,-28 530.5,-22 536.5,-16 542.5,-16 542.5,-16 617.5,-16 617.5,-16 623.5,-16 629.5,-22 629.5,-28 629.5,-28 629.5,-40 629.5,-40 629.5,-46 623.5,-52 617.5,-52"/>
<text text-anchor="middle" x="580" y="-30.3" font-family="Times,serif" font-size="14.00">shopping.md</text>
</g>
<!-- k&#45;&gt;m -->
<g id="edge7" class="edge">
<title>k&#45;&gt;m</title>
<path fill="none" stroke="black" d="M504.22,-102.8C518.26,-90.24 537.47,-73.05 553.04,-59.12"/>
<polygon fill="black" stroke="black" points="555.69,-61.45 560.8,-52.18 551.02,-56.24 555.69,-61.45"/>
</g>
<!-- l&#45;&gt;j -->
<g id="edge16" class="edge">
<title>l&#45;&gt;j</title>
<path fill="none" stroke="grey" stroke-width="2" stroke-dasharray="5,2" d="M397.72,-34C378.24,-34 356.3,-34 336.12,-34"/>
<polygon fill="grey" stroke="grey" stroke-width="2" points="336.07,-30.5 326.07,-34 336.07,-37.5 336.07,-30.5"/>
<text text-anchor="middle" x="362" y="-40.8" font-family="Helvetica,sans-Serif" font-size="14.00" fill="grey">prev</text>
</g>
<!-- o -->
<g id="node11" class="node">
<title>o</title>
<path fill="white" stroke="black" d="M260,-373C260,-373 230,-373 230,-373 224,-373 218,-367 218,-361 218,-361 218,-349 218,-349 218,-343 224,-337 230,-337 230,-337 260,-337 260,-337 266,-337 272,-343 272,-349 272,-349 272,-361 272,-361 272,-367 266,-373 260,-373"/>
<text text-anchor="middle" x="245" y="-351.3" font-family="Times,serif" font-size="14.00">Docs/</text>
</g>
<!-- o&#45;&gt;c -->
<g id="edge15" class="edge">
<title>o&#45;&gt;c</title>
<path fill="none" stroke="grey" stroke-width="2" stroke-dasharray="5,2" d="M217.88,-340.59C201.89,-331.32 182.58,-317.51 171,-300 162.87,-287.7 158.84,-271.78 156.86,-258.33"/>
<polygon fill="grey" stroke="grey" stroke-width="2" points="160.31,-257.71 155.67,-248.19 153.36,-258.53 160.31,-257.71"/>
<text text-anchor="middle" x="186.5" y="-288.8" font-family="Helvetica,sans-Serif" font-size="14.00" fill="grey">prev</text>
</g>
<!-- o&#45;&gt;f -->
<g id="edge10" class="edge">
<title>o&#45;&gt;f</title>
<path fill="none" stroke="cornflowerblue" stroke-width="3" d="M239.84,-336.87C231.35,-309.65 213.13,-255.19 191,-212 164.52,-160.33 153.7,-149.55 119,-103 108.05,-88.31 94.97,-72.59 84.1,-59.97"/>
<polygon fill="cornflowerblue" stroke="cornflowerblue" stroke-width="3" points="86.52,-57.42 77.33,-52.17 81.24,-62.01 86.52,-57.42"/>
</g>
<!-- o&#45;&gt;k -->
<g id="edge9" class="edge">
<title>o&#45;&gt;k</title>
<path fill="none" stroke="cornflowerblue" stroke-width="3" d="M262.65,-336.94C304.78,-296.22 411.33,-193.21 460.03,-146.14"/>
<polygon fill="cornflowerblue" stroke="cornflowerblue" stroke-width="3" points="462.57,-148.55 467.33,-139.08 457.7,-143.52 462.57,-148.55"/>
</g>
<!-- n -->
<g id="node12" class="node">
<title>n</title>
<path fill="white" stroke="black" d="M277.5,-496C277.5,-496 224.5,-496 224.5,-496 218.5,-496 212.5,-490 212.5,-484 212.5,-484 212.5,-472 212.5,-472 212.5,-466 218.5,-460 224.5,-460 224.5,-460 277.5,-460 277.5,-460 283.5,-460 289.5,-466 289.5,-472 289.5,-472 289.5,-484 289.5,-484 289.5,-490 283.5,-496 277.5,-496"/>
<text text-anchor="middle" x="251" y="-474.3" font-family="Times,serif" font-size="14.00">New Root</text>
</g>
<!-- n&#45;&gt;a -->
<g id="edge14" class="edge">
<title>n&#45;&gt;a</title>
<path fill="none" stroke="grey" stroke-width="2" stroke-dasharray="5,2" d="M230.23,-459.82C224.32,-454.43 218.11,-448.25 213,-442 197.82,-423.42 183.94,-399.98 174.35,-382.27"/>
<polygon fill="grey" stroke="grey" stroke-width="2" points="177.25,-380.28 169.48,-373.08 171.07,-383.56 177.25,-380.28"/>
<text text-anchor="middle" x="228.5" y="-430.8" font-family="Helvetica,sans-Serif" font-size="14.00" fill="grey">prev</text>
</g>
<!-- n&#45;&gt;d -->
<g id="edge11" class="edge">
<title>n&#45;&gt;d</title>
<path fill="none" stroke="cornflowerblue" stroke-width="3" d="M212.43,-468.43C184.38,-460.27 147.51,-445.22 125,-419 85.08,-372.51 74.61,-298.15 71.9,-258.31"/>
<polygon fill="cornflowerblue" stroke="cornflowerblue" stroke-width="3" points="75.39,-258.05 71.34,-248.27 68.4,-258.45 75.39,-258.05"/>
</g>
<!-- n&#45;&gt;o -->
<g id="edge8" class="edge">
<title>n&#45;&gt;o</title>
<path fill="none" stroke="black" d="M250.15,-459.92C249.17,-440.04 247.53,-406.92 246.36,-383.42"/>
<polygon fill="black" stroke="black" points="249.85,-383.2 245.86,-373.38 242.86,-383.55 249.85,-383.2"/>
</g>
</g>
</svg>
