<?xml version="1.0" encoding="UTF-8" standalone="no"?>
<!DOCTYPE svg PUBLIC "-//W3C//DTD SVG 1.1//EN"
 "http://www.w3.org/Graphics/SVG/1.1/DTD/svg11.dtd">
<!-- Generated by graphviz version 2.44.0 ()
 -->
<!-- Title: G Pages: 1 -->
<svg width="764pt" height="558pt"
 viewBox="0.00 0.00 764.00 558.00" xmlns="http://www.w3.org/2000/svg" xmlns:xlink="http://www.w3.org/1999/xlink">
<g id="graph0" class="graph" transform="scale(1 1) rotate(0) translate(4 554)">
<title>G</title>
<polygon fill="white" stroke="#000000" points="-4,4 -4,-554 760,-554 760,4 -4,4"/>
<g id="clust1" class="cluster">
<title>cluster_main</title>
<path fill="#b3e2cd" stroke="#b3e2cd" d="M20,-8C20,-8 294,-8 294,-8 300,-8 306,-14 306,-20 306,-20 306,-407 306,-407 306,-413 300,-419 294,-419 294,-419 20,-419 20,-419 14,-419 8,-413 8,-407 8,-407 8,-20 8,-20 8,-14 14,-8 20,-8"/>
<text text-anchor="middle" x="157" y="-403.8" font-family="Helvetica,sans-Serif" font-size="14.00">Revision 0</text>
<text text-anchor="middle" x="157" y="-388.8" font-family="Helvetica,sans-Serif" font-size="14.00">Original</text>
</g>
<g id="clust4" class="cluster">
<title>cluster_rev1</title>
<path fill="#cbd5e8" stroke="#b3e2cd" d="M326,-8C326,-8 432,-8 432,-8 438,-8 444,-14 444,-20 444,-20 444,-173 444,-173 444,-179 438,-185 432,-185 432,-185 326,-185 326,-185 320,-185 314,-179 314,-173 314,-173 314,-20 314,-20 314,-14 320,-8 326,-8"/>
<text text-anchor="middle" x="379" y="-169.8" font-family="Helvetica,sans-Serif" font-size="14.00">Revision 1</text>
<text text-anchor="middle" x="379" y="-154.8" font-family="Helvetica,sans-Serif" font-size="14.00">Partial</text>
</g>
<g id="clust5" class="cluster">
<title>cluster_rev2</title>
<path fill="#f4cae4" stroke="#b3e2cd" d="M512,-8C512,-8 736,-8 736,-8 742,-8 748,-14 748,-20 748,-20 748,-173 748,-173 748,-179 742,-185 736,-185 736,-185 512,-185 512,-185 506,-185 500,-179 500,-173 500,-173 500,-20 500,-20 500,-14 506,-8 512,-8"/>
<text text-anchor="middle" x="624" y="-169.8" font-family="Helvetica,sans-Serif" font-size="14.00">Revision 2</text>
<text text-anchor="middle" x="624" y="-154.8" font-family="Helvetica,sans-Serif" font-size="14.00">Partial</text>
</g>
<g id="clust7" class="cluster">
<title>cluster_attach</title>
<path fill="#fdcdac" stroke="#b3e2cd" d="M326,-329C326,-329 454,-329 454,-329 460,-329 466,-335 466,-341 466,-341 466,-530 466,-530 466,-536 460,-542 454,-542 454,-542 326,-542 326,-542 320,-542 314,-536 314,-530 314,-530 314,-341 314,-341 314,-335 320,-329 326,-329"/>
<text text-anchor="middle" x="390" y="-526.8" font-family="Helvetica,sans-Serif" font-size="14.00">Revision 3</text>
<text text-anchor="middle" x="390" y="-511.8" font-family="Helvetica,sans-Serif" font-size="14.00">Attached, Complete</text>
</g>
<!-- a -->
<g id="node1" class="node">
<title>a</title>
<path fill="white" stroke="black" d="M286,-373C286,-373 256,-373 256,-373 250,-373 244,-367 244,-361 244,-361 244,-349 244,-349 244,-343 250,-337 256,-337 256,-337 286,-337 286,-337 292,-337 298,-343 298,-349 298,-349 298,-361 298,-361 298,-367 292,-373 286,-373"/>
<text text-anchor="middle" x="271" y="-351.3" font-family="Times,serif" font-size="14.00">Root</text>
</g>
<!-- c -->
<g id="node2" class="node">
<title>c</title>
<path fill="white" stroke="black" d="M286,-248C286,-248 256,-248 256,-248 250,-248 244,-242 244,-236 244,-236 244,-224 244,-224 244,-218 250,-212 256,-212 256,-212 286,-212 286,-212 292,-212 298,-218 298,-224 298,-224 298,-236 298,-236 298,-242 292,-248 286,-248"/>
<text text-anchor="middle" x="271" y="-226.3" font-family="Times,serif" font-size="14.00">Docs/</text>
</g>
<!-- a&#45;&gt;c -->
<g id="edge1" class="edge">
<title>a&#45;&gt;c</title>
<path fill="none" stroke="black" d="M271,-336.9C271,-316.63 271,-282.6 271,-258.59"/>
<polygon fill="black" stroke="black" points="274.5,-258.35 271,-248.35 267.5,-258.35 274.5,-258.35"/>
</g>
<!-- d -->
<g id="node3" class="node">
<title>d</title>
<path fill="white" stroke="black" d="M203,-248C203,-248 165,-248 165,-248 159,-248 153,-242 153,-236 153,-236 153,-224 153,-224 153,-218 159,-212 165,-212 165,-212 203,-212 203,-212 209,-212 215,-218 215,-224 215,-224 215,-236 215,-236 215,-242 209,-248 203,-248"/>
<text text-anchor="middle" x="184" y="-226.3" font-family="Times,serif" font-size="14.00">Music/</text>
</g>
<!-- a&#45;&gt;d -->
<g id="edge2" class="edge">
<title>a&#45;&gt;d</title>
<path fill="none" stroke="black" d="M258.9,-336.9C244.18,-316.09 219.19,-280.75 202.16,-256.67"/>
<polygon fill="black" stroke="black" points="204.91,-254.5 196.27,-248.35 199.19,-258.54 204.91,-254.5"/>
</g>
<!-- e -->
<g id="node6" class="node">
<title>e</title>
<path fill="white" stroke="black" d="M286,-52C286,-52 248,-52 248,-52 242,-52 236,-46 236,-40 236,-40 236,-28 236,-28 236,-22 242,-16 248,-16 248,-16 286,-16 286,-16 292,-16 298,-22 298,-28 298,-28 298,-40 298,-40 298,-46 292,-52 286,-52"/>
<text text-anchor="middle" x="267" y="-30.3" font-family="Times,serif" font-size="14.00">Todos/</text>
</g>
<!-- c&#45;&gt;e -->
<g id="edge3" class="edge">
<title>c&#45;&gt;e</title>
<path fill="none" stroke="black" d="M270.65,-211.78C269.95,-178.06 268.4,-103.06 267.57,-62.43"/>
<polygon fill="black" stroke="black" points="271.06,-62.1 267.35,-52.18 264.06,-62.25 271.06,-62.1"/>
</g>
<!-- y -->
<g id="node4" class="node">
<title>y</title>
<path fill="white" stroke="black" d="M206,-52C206,-52 138,-52 138,-52 132,-52 126,-46 126,-40 126,-40 126,-28 126,-28 126,-22 132,-16 138,-16 138,-16 206,-16 206,-16 212,-16 218,-22 218,-28 218,-28 218,-40 218,-40 218,-46 212,-52 206,-52"/>
<text text-anchor="middle" x="172" y="-30.3" font-family="Times,serif" font-size="14.00">ligeti.mp3</text>
</g>
<!-- d&#45;&gt;y -->
<g id="edge4" class="edge">
<title>d&#45;&gt;y</title>
<path fill="none" stroke="black" d="M182.94,-211.78C180.84,-177.99 176.19,-102.74 173.68,-62.17"/>
<polygon fill="black" stroke="black" points="177.17,-61.94 173.06,-52.18 170.19,-62.37 177.17,-61.94"/>
</g>
<!-- z -->
<g id="node5" class="node">
<title>z</title>
<path fill="white" stroke="black" d="M96,-52C96,-52 28,-52 28,-52 22,-52 16,-46 16,-40 16,-40 16,-28 16,-28 16,-22 22,-16 28,-16 28,-16 96,-16 96,-16 102,-16 108,-22 108,-28 108,-28 108,-40 108,-40 108,-46 102,-52 96,-52"/>
<text text-anchor="middle" x="62" y="-30.3" font-family="Times,serif" font-size="14.00">sevish.mp3</text>
</g>
<!-- d&#45;&gt;z -->
<g id="edge5" class="edge">
<title>d&#45;&gt;z</title>
<path fill="none" stroke="black" d="M173.17,-211.78C151.69,-177.63 103.59,-101.13 78.28,-60.89"/>
<polygon fill="black" stroke="black" points="81.09,-58.78 72.8,-52.18 75.16,-62.51 81.09,-58.78"/>
</g>
<!-- f -->
<!-- i -->
<g id="node8" class="node">
<title>i</title>
<path fill="white" stroke="black" d="M372,-139C372,-139 334,-139 334,-139 328,-139 322,-133 322,-127 322,-127 322,-115 322,-115 322,-109 328,-103 334,-103 334,-103 372,-103 372,-103 378,-103 384,-109 384,-115 384,-115 384,-127 384,-127 384,-133 378,-139 372,-139"/>
<text text-anchor="middle" x="353" y="-117.3" font-family="Times,serif" font-size="14.00">Todos/</text>
</g>
<!-- i&#45;&gt;e -->
<g id="edge12" class="edge">
<title>i&#45;&gt;e</title>
<path fill="none" stroke="grey" stroke-width="2" stroke-dasharray="5,2" d="M335.6,-102.8C323.01,-90.36 305.82,-73.36 291.79,-59.5"/>
<polygon fill="grey" stroke="grey" stroke-width="2" points="293.95,-56.72 284.38,-52.18 289.03,-61.69 293.95,-56.72"/>
<text text-anchor="middle" x="330.5" y="-73.8" font-family="Helvetica,sans-Serif" font-size="14.00" fill="grey">prev</text>
</g>
<!-- j -->
<g id="node9" class="node">
<title>j</title>
<path fill="white" stroke="black" d="M424,-52C424,-52 334,-52 334,-52 328,-52 322,-46 322,-40 322,-40 322,-28 322,-28 322,-22 328,-16 334,-16 334,-16 424,-16 424,-16 430,-16 436,-22 436,-28 436,-28 436,-40 436,-40 436,-46 430,-52 424,-52"/>
<text text-anchor="middle" x="379" y="-30.3" font-family="Times,serif" font-size="14.00">groceries.org</text>
</g>
<!-- i&#45;&gt;j -->
<g id="edge6" class="edge">
<title>i&#45;&gt;j</title>
<path fill="none" stroke="black" d="M358.26,-102.8C361.86,-91.05 366.69,-75.24 370.79,-61.84"/>
<polygon fill="black" stroke="black" points="374.17,-62.76 373.75,-52.18 367.47,-60.71 374.17,-62.76"/>
</g>
<!-- l -->
<g id="node11" class="node">
<title>l</title>
<path fill="white" stroke="black" d="M610,-52C610,-52 520,-52 520,-52 514,-52 508,-46 508,-40 508,-40 508,-28 508,-28 508,-22 514,-16 520,-16 520,-16 610,-16 610,-16 616,-16 622,-22 622,-28 622,-28 622,-40 622,-40 622,-46 616,-52 610,-52"/>
<text text-anchor="middle" x="565" y="-30.3" font-family="Times,serif" font-size="14.00">groceries.org</text>
</g>
<!-- i&#45;&gt;l -->
<!-- j&#45;&gt;l -->
<!-- j&#45;&gt;l -->
<!-- k -->
<g id="node10" class="node">
<title>k</title>
<path fill="white" stroke="black" d="M614,-139C614,-139 576,-139 576,-139 570,-139 564,-133 564,-127 564,-127 564,-115 564,-115 564,-109 570,-103 576,-103 576,-103 614,-103 614,-103 620,-103 626,-109 626,-115 626,-115 626,-127 626,-127 626,-133 620,-139 614,-139"/>
<text text-anchor="middle" x="595" y="-117.3" font-family="Times,serif" font-size="14.00">Todos/</text>
</g>
<!-- k&#45;&gt;i -->
<g id="edge13" class="edge">
<title>k&#45;&gt;i</title>
<path fill="none" stroke="grey" stroke-width="2" stroke-dasharray="5,2" d="M563.98,-121C520.75,-121 442.31,-121 394.21,-121"/>
<polygon fill="grey" stroke="grey" stroke-width="2" points="394.14,-117.5 384.14,-121 394.14,-124.5 394.14,-117.5"/>
<text text-anchor="middle" x="474" y="-127.8" font-family="Helvetica,sans-Serif" font-size="14.00" fill="grey">prev</text>
</g>
<!-- k&#45;&gt;l -->
<g id="edge7" class="edge">
<title>k&#45;&gt;l</title>
<path fill="none" stroke="black" d="M588.93,-102.8C584.78,-91.05 579.2,-75.24 574.47,-61.84"/>
<polygon fill="black" stroke="black" points="577.69,-60.44 571.06,-52.18 571.09,-62.77 577.69,-60.44"/>
</g>
<!-- m -->
<g id="node12" class="node">
<title>m</title>
<path fill="white" stroke="black" d="M727.5,-52C727.5,-52 652.5,-52 652.5,-52 646.5,-52 640.5,-46 640.5,-40 640.5,-40 640.5,-28 640.5,-28 640.5,-22 646.5,-16 652.5,-16 652.5,-16 727.5,-16 727.5,-16 733.5,-16 739.5,-22 739.5,-28 739.5,-28 739.5,-40 739.5,-40 739.5,-46 733.5,-52 727.5,-52"/>
<text text-anchor="middle" x="690" y="-30.3" font-family="Times,serif" font-size="14.00">shopping.md</text>
</g>
<!-- k&#45;&gt;m -->
<g id="edge8" class="edge">
<title>k&#45;&gt;m</title>
<path fill="none" stroke="black" d="M614.22,-102.8C628.26,-90.24 647.47,-73.05 663.04,-59.12"/>
<polygon fill="black" stroke="black" points="665.69,-61.45 670.8,-52.18 661.02,-56.24 665.69,-61.45"/>
</g>
<!-- l&#45;&gt;j -->
<g id="edge16" class="edge">
<title>l&#45;&gt;j</title>
<path fill="none" stroke="grey" stroke-width="2" stroke-dasharray="5,2" d="M507.72,-34C488.24,-34 466.3,-34 446.12,-34"/>
<polygon fill="grey" stroke="grey" stroke-width="2" points="446.07,-30.5 436.07,-34 446.07,-37.5 446.07,-30.5"/>
<text text-anchor="middle" x="472" y="-40.8" font-family="Helvetica,sans-Serif" font-size="14.00" fill="grey">prev</text>
</g>
<!-- o -->
<g id="node13" class="node">
<title>o</title>
<path fill="white" stroke="black" d="M396,-373C396,-373 366,-373 366,-373 360,-373 354,-367 354,-361 354,-361 354,-349 354,-349 354,-343 360,-337 366,-337 366,-337 396,-337 396,-337 402,-337 408,-343 408,-349 408,-349 408,-361 408,-361 408,-367 402,-373 396,-373"/>
<text text-anchor="middle" x="381" y="-351.3" font-family="Times,serif" font-size="14.00">Docs/</text>
</g>
<!-- o&#45;&gt;c -->
<g id="edge15" class="edge">
<title>o&#45;&gt;c</title>
<path fill="none" stroke="grey" stroke-width="2" stroke-dasharray="5,2" d="M376.67,-336.82C371.05,-317.52 359.57,-286.23 340,-266 331.03,-256.72 319.07,-249.48 307.63,-244.05"/>
<polygon fill="grey" stroke="grey" stroke-width="2" points="308.78,-240.73 298.22,-239.91 305.96,-247.14 308.78,-240.73"/>
<text text-anchor="middle" x="377.5" y="-288.8" font-family="Helvetica,sans-Serif" font-size="14.00" fill="grey">prev</text>
</g>
<!-- o&#45;&gt;k -->
<g id="edge10" class="edge">
<title>o&#45;&gt;k</title>
<path fill="none" stroke="black" stroke-width="2" d="M396.74,-336.94C434.15,-296.38 528.53,-194.06 572.19,-146.73"/>
<polygon fill="black" stroke="black" stroke-width="2" points="575.03,-148.81 579.24,-139.08 569.89,-144.06 575.03,-148.81"/>
</g>
<!-- n -->
<g id="node14" class="node">
<title>n</title>
<path fill="white" stroke="black" d="M387.5,-496C387.5,-496 334.5,-496 334.5,-496 328.5,-496 322.5,-490 322.5,-484 322.5,-484 322.5,-472 322.5,-472 322.5,-466 328.5,-460 334.5,-460 334.5,-460 387.5,-460 387.5,-460 393.5,-460 399.5,-466 399.5,-472 399.5,-472 399.5,-484 399.5,-484 399.5,-490 393.5,-496 387.5,-496"/>
<text text-anchor="middle" x="361" y="-474.3" font-family="Times,serif" font-size="14.00">New Root</text>
</g>
<!-- n&#45;&gt;a -->
<g id="edge14" class="edge">
<title>n&#45;&gt;a</title>
<path fill="none" stroke="grey" stroke-width="2" stroke-dasharray="5,2" d="M322.3,-468.91C307.09,-463.75 290.92,-455.4 281,-442 268.67,-425.33 266.72,-401.66 267.55,-383.37"/>
<polygon fill="grey" stroke="grey" stroke-width="2" points="271.05,-383.55 268.3,-373.32 264.07,-383.03 271.05,-383.55"/>
<text text-anchor="middle" x="296.5" y="-430.8" font-family="Helvetica,sans-Serif" font-size="14.00" fill="grey">prev</text>
</g>
<!-- n&#45;&gt;d -->
<g id="edge11" class="edge">
<title>n&#45;&gt;d</title>
<path fill="none" stroke="black" stroke-width="2" d="M355.99,-459.74C345.88,-425.57 322.62,-350.7 307,-329 284.4,-297.61 249.15,-270.95 222.16,-253.4"/>
<polygon fill="black" stroke="black" stroke-width="2" points="224.04,-250.44 213.72,-248.02 220.28,-256.35 224.04,-250.44"/>
</g>
<!-- n&#45;&gt;o -->
<g id="edge9" class="edge">
<title>n&#45;&gt;o</title>
<path fill="none" stroke="black" d="M363.82,-459.92C367.11,-440.04 372.58,-406.92 376.47,-383.42"/>
<polygon fill="black" stroke="black" points="379.95,-383.82 378.13,-373.38 373.04,-382.68 379.95,-383.82"/>
</g>
</g>
</svg>
