<?xml version="1.0" encoding="UTF-8" standalone="no"?>
<!DOCTYPE svg PUBLIC "-//W3C//DTD SVG 1.1//EN"
 "http://www.w3.org/Graphics/SVG/1.1/DTD/svg11.dtd">
<!-- Generated by graphviz version 2.44.0 ()
 -->
<!-- Title: G Pages: 1 -->
<svg width="250pt" height="99pt"
 viewBox="0.00 0.00 250.00 99.00" xmlns="http://www.w3.org/2000/svg" xmlns:xlink="http://www.w3.org/1999/xlink">
<g id="graph0" class="graph" transform="scale(1 1) rotate(0) translate(4 95)">
<title>G</title>
<polygon fill="white" stroke="#000000" points="-4,4 -4,-95 246,-95 246,4 -4,4"/>
<g id="clust1" class="cluster">
<title>cluster_decryption_pointer</title>
<path fill="#de77ae" stroke="#de77ae" d="M20,-8C20,-8 222,-8 222,-8 228,-8 234,-14 234,-20 234,-20 234,-71 234,-71 234,-77 228,-83 222,-83 222,-83 20,-83 20,-83 14,-83 8,-77 8,-71 8,-71 8,-20 8,-20 8,-14 14,-8 20,-8"/>
<text text-anchor="middle" x="121" y="-67.8" font-family="Helvetica,sans-Serif" font-size="14.00" fill="white">Decryption Pointer</text>
</g>
<!-- namefilter -->
<g id="node1" class="node">
<title>namefilter</title>
<polygon fill="#fde0ef" stroke="#c51b7d" points="226,-52 134,-52 134,-16 226,-16 226,-52"/>
<text text-anchor="middle" x="180" y="-30.3" font-family="Helvetica,sans-Serif" font-size="14.00" fill="#c51b7d">Namefilter</text>
</g>
<!-- content_key -->
<g id="node2" class="node">
<title>content_key</title>
<polygon fill="#fde0ef" stroke="#c51b7d" points="115.5,-52 16.5,-52 16.5,-16 115.5,-16 115.5,-52"/>
<text text-anchor="middle" x="66" y="-30.3" font-family="Helvetica,sans-Serif" font-size="14.00" fill="#c51b7d">Content Key</text>
</g>
</g>
</svg>
