<?xml version="1.0" encoding="UTF-8" standalone="no"?>
<!DOCTYPE svg PUBLIC "-//W3C//DTD SVG 1.1//EN"
 "http://www.w3.org/Graphics/SVG/1.1/DTD/svg11.dtd">
<!-- Generated by graphviz version 2.44.0 ()
 -->
<!-- Title: G Pages: 1 -->
<svg width="556pt" height="387pt"
 viewBox="0.00 0.00 556.00 387.00" xmlns="http://www.w3.org/2000/svg" xmlns:xlink="http://www.w3.org/1999/xlink">
<g id="graph0" class="graph" transform="scale(1 1) rotate(0) translate(4 383)">
<title>G</title>
<polygon fill="white" stroke="#000000" points="-4,4 -4,-383 552,-383 552,4 -4,4"/>
<g id="clust1" class="cluster">
<title>cluster_private_header</title>
<polygon fill="#bebada" stroke="#bebada" points="8,-8 8,-229 154,-229 154,-8 8,-8"/>
<text text-anchor="middle" x="81" y="-213.8" font-family="Times,serif" font-size="14.00">Private Header</text>
</g>
<g id="clust2" class="cluster">
<title>cluster_temporal_header</title>
<polygon fill="#8dd3c7" stroke="#8dd3c7" points="162,-8 162,-229 330,-229 330,-8 162,-8"/>
<text text-anchor="middle" x="246" y="-213.8" font-family="Times,serif" font-size="14.00">Temporal Header</text>
</g>
<g id="clust3" class="cluster">
<title>cluster_private_content</title>
<polygon fill="#8dd3c7" stroke="#8dd3c7" points="350,-8 350,-229 540,-229 540,-8 350,-8"/>
<text text-anchor="middle" x="445" y="-213.8" font-family="Times,serif" font-size="14.00">Private Content</text>
</g>
<!-- node_key -->
<g id="node1" class="node">
<title>node_key</title>
<polygon fill="#d9d9d9" stroke="black" points="177.5,-379 100.5,-379 100.5,-343 177.5,-343 177.5,-379"/>
<text text-anchor="middle" x="139" y="-357.3" font-family="Times,serif" font-size="14.00">Node Key</text>
</g>
<!-- content_key -->
<g id="node2" class="node">
<title>content_key</title>
<polygon fill="#d9d9d9" stroke="black" points="304.5,-292 205.5,-292 205.5,-256 304.5,-256 304.5,-292"/>
<text text-anchor="middle" x="255" y="-270.3" font-family="Times,serif" font-size="14.00">Content Key</text>
</g>
<!-- node_key&#45;&gt;content_key -->
<g id="edge7" class="edge">
<title>node_key:e&#45;&gt;content_key:n</title>
<path fill="none" stroke="black" stroke-dasharray="5,2" d="M179,-361C221.06,-361 250.16,-341.13 254.45,-302.28"/>
<polygon fill="black" stroke="black" points="257.96,-302.17 255,-292 250.97,-301.8 257.96,-302.17"/>
<text text-anchor="middle" x="267.5" y="-313.8" font-family="Times,serif" font-size="14.00">SHA3</text>
</g>
<!-- skip_ratchet -->
<g id="node3" class="node">
<title>skip_ratchet</title>
<polygon fill="#d9d9d9" stroke="black" points="146.5,-198 39.5,-198 39.5,-162 146.5,-162 146.5,-198"/>
<text text-anchor="middle" x="93" y="-176.3" font-family="Times,serif" font-size="14.00">Skip Ratchet</text>
</g>
<!-- node_key&#45;&gt;skip_ratchet -->
<g id="edge8" class="edge">
<title>node_key:w&#45;&gt;skip_ratchet:w</title>
<path fill="none" stroke="black" stroke-dasharray="5,2" d="M89.08,-359.44C35.12,-341.74 35.32,-180 39,-180"/>
<polygon fill="black" stroke="black" points="88.58,-362.9 99,-361 89.67,-355.98 88.58,-362.9"/>
<text text-anchor="middle" x="71" y="-270.3" font-family="Times,serif" font-size="14.00">Derive</text>
</g>
<!-- node_key&#45;&gt;skip_ratchet -->
<g id="edge10" class="edge">
<title>node_key&#45;&gt;skip_ratchet:n</title>
<path fill="none" stroke="black" d="M130.56,-342.6C120.51,-320.62 104.16,-280.62 96.8,-239.03"/>
<polygon fill="black" stroke="black" points="100.23,-238.33 95.21,-229 93.32,-239.42 100.23,-238.33"/>
</g>
<!-- apps_header_key -->
<g id="node6" class="node">
<title>apps_header_key</title>
<polygon fill="#d9d9d9" stroke="black" points="293,-125 179,-125 179,-89 293,-89 293,-125"/>
<text text-anchor="middle" x="236" y="-103.3" font-family="Times,serif" font-size="14.00">Apps Node Key</text>
</g>
<!-- node_key&#45;&gt;apps_header_key -->
<g id="edge11" class="edge">
<title>node_key&#45;&gt;apps_header_key</title>
<path fill="none" stroke="black" d="M141.64,-342.8C145.29,-320.9 152.9,-280.83 165.58,-238.61"/>
<polygon fill="black" stroke="black" points="168.94,-239.59 168.55,-229 162.25,-237.52 168.94,-239.59"/>
</g>
<!-- content_key&#45;&gt;skip_ratchet -->
<!-- invis_header -->
<!-- content_key&#45;&gt;invis_header -->
<!-- metadata -->
<g id="node9" class="node">
<title>metadata</title>
<polygon fill="#d9d9d9" stroke="black" points="450.5,-198 373.5,-198 373.5,-162 450.5,-162 450.5,-198"/>
<text text-anchor="middle" x="412" y="-176.3" font-family="Times,serif" font-size="14.00">metadata</text>
</g>
<!-- content_key&#45;&gt;metadata -->
<g id="edge9" class="edge">
<title>content_key:e&#45;&gt;metadata</title>
<path fill="none" stroke="black" d="M306,-274C333.19,-274 356.74,-256.5 374.69,-236.68"/>
<polygon fill="black" stroke="black" points="377.42,-238.86 381.29,-229 372.12,-234.3 377.42,-238.86"/>
</g>
<!-- bare_nf -->
<g id="node4" class="node">
<title>bare_nf</title>
<polygon fill="#d9d9d9" stroke="black" points="145.5,-125 16.5,-125 16.5,-89 145.5,-89 145.5,-125"/>
<text text-anchor="middle" x="81" y="-103.3" font-family="Times,serif" font-size="14.00">Bare Namefilter</text>
</g>
<!-- skip_ratchet&#45;&gt;bare_nf -->
<!-- skip_ratchet&#45;&gt;apps_header_key -->
<!-- i_number -->
<g id="node5" class="node">
<title>i_number</title>
<polygon fill="#d9d9d9" stroke="black" points="119.5,-52 42.5,-52 42.5,-16 119.5,-16 119.5,-52"/>
<text text-anchor="middle" x="81" y="-30.3" font-family="Times,serif" font-size="14.00">i&#45;number</text>
</g>
<!-- bare_nf&#45;&gt;i_number -->
<!-- apps_header_key&#45;&gt;skip_ratchet -->
<!-- docs_header_key -->
<g id="node7" class="node">
<title>docs_header_key</title>
<polygon fill="#d9d9d9" stroke="black" points="322,-52 170,-52 170,-16 322,-16 322,-52"/>
<text text-anchor="middle" x="246" y="-30.3" font-family="Times,serif" font-size="14.00">Documents Node Key</text>
</g>
<!-- apps_header_key&#45;&gt;docs_header_key -->
<!-- apps_content_key -->
<g id="node10" class="node">
<title>apps_content_key</title>
<polygon fill="#d9d9d9" stroke="black" points="495.5,-125 358.5,-125 358.5,-89 495.5,-89 495.5,-125"/>
<text text-anchor="middle" x="427" y="-103.3" font-family="Times,serif" font-size="14.00">Apps Content Key</text>
</g>
<!-- apps_header_key&#45;&gt;apps_content_key -->
<g id="edge12" class="edge">
<title>apps_header_key&#45;&gt;apps_content_key</title>
<path fill="none" stroke="black" d="M293.08,-107C314.87,-107 336.67,-107 358.47,-107"/>
</g>
<!-- invis_header&#45;&gt;apps_header_key -->
<!-- metadata&#45;&gt;apps_content_key -->
<!-- docs_content_key -->
<g id="node11" class="node">
<title>docs_content_key</title>
<polygon fill="#d9d9d9" stroke="black" points="532,-52 358,-52 358,-16 532,-16 532,-52"/>
<text text-anchor="middle" x="445" y="-30.3" font-family="Times,serif" font-size="14.00">Documents Content Key</text>
</g>
<!-- apps_content_key&#45;&gt;docs_content_key -->
<!-- docs_content_key&#45;&gt;docs_header_key -->
<g id="edge13" class="edge">
<title>docs_content_key&#45;&gt;docs_header_key</title>
<path fill="none" stroke="black" d="M357.68,-34C345.85,-34 334.01,-34 322.18,-34"/>
</g>
</g>
</svg>
