<?xml version="1.0" encoding="UTF-8" standalone="no"?>
<!DOCTYPE svg PUBLIC "-//W3C//DTD SVG 1.1//EN"
 "http://www.w3.org/Graphics/SVG/1.1/DTD/svg11.dtd">
<!-- Generated by graphviz version 2.44.0 ()
 -->
<!-- Title: G Pages: 1 -->
<svg width="250pt" height="99pt"
 viewBox="0.00 0.00 250.00 99.00" xmlns="http://www.w3.org/2000/svg" xmlns:xlink="http://www.w3.org/1999/xlink">
<g id="graph0" class="graph" transform="scale(1 1) rotate(0) translate(4 95)">
<title>G</title>
<polygon fill="white" stroke="#000000" points="-4,4 -4,-95 246,-95 246,4 -4,4"/>
<g id="clust1" class="cluster">
<title>cluster_decryption_pointer</title>
<polygon fill="#de77ae" stroke="#de77ae" points="8,-8 8,-83 234,-83 234,-8 8,-8"/>
<text text-anchor="middle" x="121" y="-67.8" font-family="Helvetica,sans-Serif" font-size="14.00" fill="white">Decryption Pointer</text>
</g>
<!-- namefilter -->
<g id="node1" class="node">
<title>namefilter</title>
<path fill="#fde0ef" stroke="#c51b7d" d="M214,-52C214,-52 146,-52 146,-52 140,-52 134,-46 134,-40 134,-40 134,-28 134,-28 134,-22 140,-16 146,-16 146,-16 214,-16 214,-16 220,-16 226,-22 226,-28 226,-28 226,-40 226,-40 226,-46 220,-52 214,-52"/>
<text text-anchor="middle" x="180" y="-30.3" font-family="Helvetica,sans-Serif" font-size="14.00" fill="#c51b7d">Namefilter</text>
</g>
<!-- content_key -->
<g id="node2" class="node">
<title>content_key</title>
<path fill="#fde0ef" stroke="#c51b7d" d="M103.5,-52C103.5,-52 28.5,-52 28.5,-52 22.5,-52 16.5,-46 16.5,-40 16.5,-40 16.5,-28 16.5,-28 16.5,-22 22.5,-16 28.5,-16 28.5,-16 103.5,-16 103.5,-16 109.5,-16 115.5,-22 115.5,-28 115.5,-28 115.5,-40 115.5,-40 115.5,-46 109.5,-52 103.5,-52"/>
<text text-anchor="middle" x="66" y="-30.3" font-family="Helvetica,sans-Serif" font-size="14.00" fill="#c51b7d">Content Key</text>
</g>
</g>
</svg>
