<?xml version="1.0" encoding="UTF-8" standalone="no"?>
<!DOCTYPE svg PUBLIC "-//W3C//DTD SVG 1.1//EN"
 "http://www.w3.org/Graphics/SVG/1.1/DTD/svg11.dtd">
<!-- Generated by graphviz version 2.44.0 ()
 -->
<!-- Title: G Pages: 1 -->
<svg width="542pt" height="283pt"
 viewBox="0.00 0.00 542.00 283.00" xmlns="http://www.w3.org/2000/svg" xmlns:xlink="http://www.w3.org/1999/xlink">
<g id="graph0" class="graph" transform="scale(1 1) rotate(0) translate(4 279)">
<title>G</title>
<polygon fill="white" stroke="#000000" points="-4,4 -4,-279 538,-279 538,4 -4,4"/>
<g id="clust1" class="cluster">
<title>cluster_index</title>
<path fill="#c51b7d" stroke="#c51b7d" d="M197,-192C197,-192 333,-192 333,-192 339,-192 345,-198 345,-204 345,-204 345,-255 345,-255 345,-261 339,-267 333,-267 333,-267 197,-267 197,-267 191,-267 185,-261 185,-255 185,-255 185,-204 185,-204 185,-198 191,-192 197,-192"/>
<text text-anchor="middle" x="265" y="-251.8" font-family="Helvetica,sans-Serif" font-size="14.00" fill="#fde0ef">Index</text>
</g>
<g id="clust2" class="cluster">
<title>cluster_bucket</title>
<path fill="#4d9221" stroke="#4d9221" d="M20,-8C20,-8 514,-8 514,-8 520,-8 526,-14 526,-20 526,-20 526,-143 526,-143 526,-149 520,-155 514,-155 514,-155 20,-155 20,-155 14,-155 8,-149 8,-143 8,-143 8,-20 8,-20 8,-14 14,-8 20,-8"/>
<text text-anchor="middle" x="267" y="-139.8" font-family="Helvetica,sans-Serif" font-size="14.00" fill="#e6f5d0">Bucket</text>
</g>
<!-- hashed_namefilter -->
<g id="node1" class="node">
<title>hashed_namefilter</title>
<polygon fill="#fde0ef" stroke="#c51b7d" points="337,-236 193,-236 193,-200 337,-200 337,-236"/>
<text text-anchor="middle" x="265" y="-214.3" font-family="Helvetica,sans-Serif" font-size="14.00" fill="#c51b7d">Hashed Namefilter</text>
</g>
<!-- expanded_namefilter -->
<g id="node2" class="node">
<title>expanded_namefilter</title>
<polygon fill="#e6f5d0" stroke="#4d9221" points="346.5,-124 187.5,-124 187.5,-88 346.5,-88 346.5,-124"/>
<text text-anchor="middle" x="267" y="-102.3" font-family="Helvetica,sans-Serif" font-size="14.00" fill="#4d9221">Expanded Namefilter</text>
</g>
<!-- hashed_namefilter&#45;&gt;expanded_namefilter -->
<g id="edge6" class="edge">
<title>hashed_namefilter&#45;&gt;expanded_namefilter</title>
<path fill="none" stroke="#c51b7d" d="M265.45,-192C265.6,-183.93 265.77,-174.61 265.94,-165.16"/>
<polygon fill="#c51b7d" stroke="#c51b7d" points="269.44,-165.06 266.13,-155 262.45,-164.93 269.44,-165.06"/>
</g>
<!-- expanded_namefilter&#45;&gt;hashed_namefilter -->
<g id="edge7" class="edge">
<title>expanded_namefilter:w&#45;&gt;hashed_namefilter:w</title>
<path fill="none" stroke="#276419" stroke-dasharray="5,2" d="M187,-106C140.77,-106 141.74,-202.4 181.9,-216.33"/>
<polygon fill="#276419" stroke="#276419" points="181.56,-219.82 192,-218 182.71,-212.91 181.56,-219.82"/>
<text text-anchor="middle" x="136.77" y="-168.25" font-family="Helvetica,sans-Serif" font-size="14.00" fill="#276419">Hash</text>
</g>
<!-- ellipsis_start -->
<g id="node3" class="node">
<title>ellipsis_start</title>
<polygon fill="#000000" stroke="#000000" points="70,-52 16,-52 16,-16 70,-16 70,-52"/>
<text text-anchor="middle" x="43" y="-30.3" font-family="Helvetica,sans-Serif" font-size="14.00" fill="#e6f5d0">...</text>
</g>
<!-- expanded_namefilter&#45;&gt;ellipsis_start -->
<!-- ciphertext_a -->
<g id="node4" class="node">
<title>ciphertext_a</title>
<polygon fill="#e6f5d0" stroke="#4d9221" points="189.5,-52 88.5,-52 88.5,-16 195.5,-16 195.5,-46 189.5,-52"/>
<polyline fill="none" stroke="#4d9221" points="189.5,-52 189.5,-46 "/>
<polyline fill="none" stroke="#4d9221" points="195.5,-46 189.5,-46 "/>
<text text-anchor="middle" x="142" y="-30.3" font-family="Helvetica,sans-Serif" font-size="14.00" fill="#4d9221">Ciphertext A</text>
</g>
<!-- expanded_namefilter&#45;&gt;ciphertext_a -->
<!-- ciphertext_b -->
<g id="node5" class="node">
<title>ciphertext_b</title>
<polygon fill="#e6f5d0" stroke="#4d9221" points="314.5,-52 213.5,-52 213.5,-16 320.5,-16 320.5,-46 314.5,-52"/>
<polyline fill="none" stroke="#4d9221" points="314.5,-52 314.5,-46 "/>
<polyline fill="none" stroke="#4d9221" points="320.5,-46 314.5,-46 "/>
<text text-anchor="middle" x="267" y="-30.3" font-family="Helvetica,sans-Serif" font-size="14.00" fill="#4d9221">Ciphertext B</text>
</g>
<!-- expanded_namefilter&#45;&gt;ciphertext_b -->
<!-- ciphertext_c -->
<g id="node6" class="node">
<title>ciphertext_c</title>
<polygon fill="#e6f5d0" stroke="#4d9221" points="439.5,-52 338.5,-52 338.5,-16 445.5,-16 445.5,-46 439.5,-52"/>
<polyline fill="none" stroke="#4d9221" points="439.5,-52 439.5,-46 "/>
<polyline fill="none" stroke="#4d9221" points="445.5,-46 439.5,-46 "/>
<text text-anchor="middle" x="392" y="-30.3" font-family="Helvetica,sans-Serif" font-size="14.00" fill="#4d9221">Ciphertext C</text>
</g>
<!-- expanded_namefilter&#45;&gt;ciphertext_c -->
<!-- ellipsis_end -->
<g id="node7" class="node">
<title>ellipsis_end</title>
<polygon fill="#4d9221" stroke="#000000" points="518,-52 464,-52 464,-16 518,-16 518,-52"/>
<text text-anchor="middle" x="491" y="-30.3" font-family="Helvetica,sans-Serif" font-size="14.00" fill="#e6f5d0">...</text>
</g>
<!-- expanded_namefilter&#45;&gt;ellipsis_end -->
</g>
</svg>
