<?xml version="1.0" encoding="UTF-8" standalone="no"?>
<!DOCTYPE svg PUBLIC "-//W3C//DTD SVG 1.1//EN"
 "http://www.w3.org/Graphics/SVG/1.1/DTD/svg11.dtd">
<!-- Generated by graphviz version 2.44.0 ()
 -->
<!-- Title: G Pages: 1 -->
<svg width="396pt" height="283pt"
 viewBox="0.00 0.00 396.00 283.00" xmlns="http://www.w3.org/2000/svg" xmlns:xlink="http://www.w3.org/1999/xlink">
<g id="graph0" class="graph" transform="scale(1 1) rotate(0) translate(4 279)">
<title>G</title>
<polygon fill="white" stroke="#000000" points="-4,4 -4,-279 392,-279 392,4 -4,4"/>
<g id="clust1" class="cluster">
<title>cluster_index</title>
<path fill="#c51b7d" stroke="#c51b7d" d="M124,-192C124,-192 260,-192 260,-192 266,-192 272,-198 272,-204 272,-204 272,-255 272,-255 272,-261 266,-267 260,-267 260,-267 124,-267 124,-267 118,-267 112,-261 112,-255 112,-255 112,-204 112,-204 112,-198 118,-192 124,-192"/>
<text text-anchor="middle" x="192" y="-251.8" font-family="Helvetica,sans-Serif" font-size="14.00" fill="#fde0ef">Index</text>
</g>
<g id="clust2" class="cluster">
<title>cluster_multientry</title>
<path fill="#4d9221" stroke="#4d9221" d="M20,-8C20,-8 368,-8 368,-8 374,-8 380,-14 380,-20 380,-20 380,-143 380,-143 380,-149 374,-155 368,-155 368,-155 20,-155 20,-155 14,-155 8,-149 8,-143 8,-143 8,-20 8,-20 8,-14 14,-8 20,-8"/>
<text text-anchor="middle" x="194" y="-139.8" font-family="Helvetica,sans-Serif" font-size="14.00" fill="#e6f5d0">Multi&#45;Valued Entry</text>
</g>
<!-- hashed_namefilter -->
<g id="node1" class="node">
<title>hashed_namefilter</title>
<polygon fill="#fde0ef" stroke="#c51b7d" points="264,-236 120,-236 120,-200 264,-200 264,-236"/>
<text text-anchor="middle" x="192" y="-214.3" font-family="Helvetica,sans-Serif" font-size="14.00" fill="#c51b7d">Hashed Namefilter</text>
</g>
<!-- expanded_namefilter -->
<g id="node2" class="node">
<title>expanded_namefilter</title>
<polygon fill="#e6f5d0" stroke="#4d9221" points="273.5,-124 114.5,-124 114.5,-88 273.5,-88 273.5,-124"/>
<text text-anchor="middle" x="194" y="-102.3" font-family="Helvetica,sans-Serif" font-size="14.00" fill="#4d9221">Expanded Namefilter</text>
</g>
<!-- hashed_namefilter&#45;&gt;expanded_namefilter -->
<g id="edge4" class="edge">
<title>hashed_namefilter&#45;&gt;expanded_namefilter</title>
<path fill="none" stroke="#c51b7d" d="M192.45,-192C192.6,-183.93 192.77,-174.61 192.94,-165.16"/>
<polygon fill="#c51b7d" stroke="#c51b7d" points="196.44,-165.06 193.13,-155 189.45,-164.93 196.44,-165.06"/>
</g>
<!-- expanded_namefilter&#45;&gt;hashed_namefilter -->
<g id="edge5" class="edge">
<title>expanded_namefilter:w&#45;&gt;hashed_namefilter:w</title>
<path fill="none" stroke="#276419" stroke-dasharray="5,2" d="M114,-106C67.77,-106 68.74,-202.4 108.9,-216.33"/>
<polygon fill="#276419" stroke="#276419" points="108.56,-219.82 119,-218 109.71,-212.91 108.56,-219.82"/>
<text text-anchor="middle" x="63.77" y="-168.25" font-family="Helvetica,sans-Serif" font-size="14.00" fill="#276419">Hash</text>
</g>
<!-- ciphertext_a -->
<g id="node3" class="node">
<title>ciphertext_a</title>
<polygon fill="#e6f5d0" stroke="#4d9221" points="116.5,-52 15.5,-52 15.5,-16 122.5,-16 122.5,-46 116.5,-52"/>
<polyline fill="none" stroke="#4d9221" points="116.5,-52 116.5,-46 "/>
<polyline fill="none" stroke="#4d9221" points="122.5,-46 116.5,-46 "/>
<text text-anchor="middle" x="69" y="-30.3" font-family="Helvetica,sans-Serif" font-size="14.00" fill="#4d9221">Ciphertext A</text>
</g>
<!-- expanded_namefilter&#45;&gt;ciphertext_a -->
<!-- ciphertext_b -->
<g id="node4" class="node">
<title>ciphertext_b</title>
<polygon fill="#e6f5d0" stroke="#4d9221" points="241.5,-52 140.5,-52 140.5,-16 247.5,-16 247.5,-46 241.5,-52"/>
<polyline fill="none" stroke="#4d9221" points="241.5,-52 241.5,-46 "/>
<polyline fill="none" stroke="#4d9221" points="247.5,-46 241.5,-46 "/>
<text text-anchor="middle" x="194" y="-30.3" font-family="Helvetica,sans-Serif" font-size="14.00" fill="#4d9221">Ciphertext B</text>
</g>
<!-- expanded_namefilter&#45;&gt;ciphertext_b -->
<!-- ciphertext_c -->
<g id="node5" class="node">
<title>ciphertext_c</title>
<polygon fill="#e6f5d0" stroke="#4d9221" points="366.5,-52 265.5,-52 265.5,-16 372.5,-16 372.5,-46 366.5,-52"/>
<polyline fill="none" stroke="#4d9221" points="366.5,-52 366.5,-46 "/>
<polyline fill="none" stroke="#4d9221" points="372.5,-46 366.5,-46 "/>
<text text-anchor="middle" x="319" y="-30.3" font-family="Helvetica,sans-Serif" font-size="14.00" fill="#4d9221">Ciphertext C</text>
</g>
<!-- expanded_namefilter&#45;&gt;ciphertext_c -->
</g>
</svg>
