<svg xmlns="http://www.w3.org/2000/svg" viewBox="0 0 1194 1216" width="1194" height="1216" style="background-color: transparent;"><defs><style>@import url('https://fonts.googleapis.com/css2?family=Caveat+Brush&amp;family=Source+Code+Pro&amp;family=Source+Sans+Pro&amp;family=Crimson+Pro&amp;display=block');</style></defs><text font-size="96px" font-family="Source Sans Pro" font-weight="normal" line-height="96px" letter-spacing="-0.03em" text-align="left" dominant-baseline="mathematical" alignment-baseline="mathematical" text-anchor="start" fill="#1d1d1d" transform="translate(368.00, 16.00) rotate(0.00, 250.50, 53.00)"><tspan y="48px" x="4">PrivateForest
</tspan></text><text font-size="48px" font-family="Source Sans Pro" font-weight="normal" line-height="48px" letter-spacing="-0.03em" text-align="center" dominant-baseline="mathematical" alignment-baseline="mathematical" text-anchor="middle" fill="#1d1d1d" transform="translate(432.00, 112.00) rotate(0.00, 181.00, 29.00)"><tspan y="24px" x="185">(encoding a HAMT)
</tspan></text><g id="6e254058-f48e-432a-28c4-51e12455aa5e_svg" class="tl-centered-g" transform="translate(496.00, 208.00) rotate(0.00, 112.00, 64.00)"><g pointer-events="none" stroke="#1d1d1d" stroke-width="6.66" stroke-linecap="round"><line x1="3.33" y1="3.33" x2="220.66" y2="3.33" stroke-dasharray="none" stroke-dashoffset="none"/><line x1="220.66" y1="3.33" x2="220.66" y2="124.66" stroke-dasharray="none" stroke-dashoffset="none"/><line x1="220.66" y1="124.66" x2="3.33" y2="124.66" stroke-dasharray="none" stroke-dashoffset="none"/><line x1="3.33" y1="124.66" x2="3.33" y2="3.33" stroke-dasharray="none" stroke-dashoffset="none"/></g></g><g id="364ef4f8-00c8-48c6-26dc-e83c61d60909_svg" class="tl-centered-g" transform="translate(112.00, 496.00) rotate(0.00, 112.00, 64.00)"><g pointer-events="none" stroke="#1d1d1d" stroke-width="6.66" stroke-linecap="round"><line x1="3.33" y1="3.33" x2="220.66" y2="3.33" stroke-dasharray="none" stroke-dashoffset="none"/><line x1="220.66" y1="3.33" x2="220.66" y2="124.66" stroke-dasharray="none" stroke-dashoffset="none"/><line x1="220.66" y1="124.66" x2="3.33" y2="124.66" stroke-dasharray="none" stroke-dashoffset="none"/><line x1="3.33" y1="124.66" x2="3.33" y2="3.33" stroke-dasharray="none" stroke-dashoffset="none"/></g></g><g id="721212b1-693f-4f66-338a-b81286065ace_svg" class="tl-centered-g" transform="translate(368.00, 496.00) rotate(0.00, 112.00, 64.00)"><g pointer-events="none" stroke="#1d1d1d" stroke-width="6.66" stroke-linecap="round"><line x1="3.33" y1="3.33" x2="220.66" y2="3.33" stroke-dasharray="none" stroke-dashoffset="none"/><line x1="220.66" y1="3.33" x2="220.66" y2="124.66" stroke-dasharray="none" stroke-dashoffset="none"/><line x1="220.66" y1="124.66" x2="3.33" y2="124.66" stroke-dasharray="none" stroke-dashoffset="none"/><line x1="3.33" y1="124.66" x2="3.33" y2="3.33" stroke-dasharray="none" stroke-dashoffset="none"/></g></g><g id="7f4ebe8f-83c0-4c71-142b-9bccaa763f2e_svg" class="tl-centered-g" transform="translate(624.00, 496.00) rotate(0.00, 112.00, 64.00)"><g pointer-events="none" stroke="#1d1d1d" stroke-width="6.66" stroke-linecap="round"><line x1="3.33" y1="3.33" x2="220.66" y2="3.33" stroke-dasharray="none" stroke-dashoffset="none"/><line x1="220.66" y1="3.33" x2="220.66" y2="124.66" stroke-dasharray="none" stroke-dashoffset="none"/><line x1="220.66" y1="124.66" x2="3.33" y2="124.66" stroke-dasharray="none" stroke-dashoffset="none"/><line x1="3.33" y1="124.66" x2="3.33" y2="3.33" stroke-dasharray="none" stroke-dashoffset="none"/></g></g><g text-align="center" text-anchor="middle" transform="translate(336.00, 784.00) rotate(0.00, 144.00, 64.00)"><g id="4acb6ee4-4cba-4dde-1014-6d3c3799c00c_svg" class="tl-centered-g"><g pointer-events="none" stroke="#1d1d1d" stroke-width="6.66" stroke-linecap="round"><line x1="3.33" y1="3.33" x2="284.66" y2="3.33" stroke-dasharray="none" stroke-dashoffset="none"/><line x1="284.66" y1="3.33" x2="284.66" y2="124.66" stroke-dasharray="none" stroke-dashoffset="none"/><line x1="284.66" y1="124.66" x2="3.33" y2="124.66" stroke-dasharray="none" stroke-dashoffset="none"/><line x1="3.33" y1="124.66" x2="3.33" y2="3.33" stroke-dasharray="none" stroke-dashoffset="none"/></g></g><text font-size="48px" font-family="Source Sans Pro" font-weight="normal" line-height="48px" letter-spacing="-0.03em" text-align="center" dominant-baseline="mathematical" alignment-baseline="mathematical" text-anchor="middle" transform="translate(40, 35)" fill="#1d1d1d" transform-origin="center center"><tspan y="24px" x="108">Namefilter
</tspan></text></g><g id="455c892f-7fbe-48f9-0ce3-e89ee68afa80_svg" class="tl-centered-g" transform="translate(880.00, 496.00) rotate(0.00, 112.00, 64.00)"><g pointer-events="none" stroke="#1d1d1d" stroke-width="6.66" stroke-linecap="round"><line x1="3.33" y1="3.33" x2="220.66" y2="3.33" stroke-dasharray="none" stroke-dashoffset="none"/><line x1="220.66" y1="3.33" x2="220.66" y2="124.66" stroke-dasharray="none" stroke-dashoffset="none"/><line x1="220.66" y1="124.66" x2="3.33" y2="124.66" stroke-dasharray="none" stroke-dashoffset="none"/><line x1="3.33" y1="124.66" x2="3.33" y2="3.33" stroke-dasharray="none" stroke-dashoffset="none"/></g></g><g text-align="center" text-anchor="middle" transform="translate(16.00, 1072.00) rotate(0.00, 144.00, 64.00)"><g id="885ade66-3b53-4d30-2580-a5a3d994e321_svg" class="tl-centered-g"><g pointer-events="none" stroke="#1d1d1d" stroke-width="6.66" stroke-linecap="round"><line x1="3.33" y1="3.33" x2="284.66" y2="3.33" stroke-dasharray="none" stroke-dashoffset="none"/><line x1="284.66" y1="3.33" x2="284.66" y2="124.66" stroke-dasharray="none" stroke-dashoffset="none"/><line x1="284.66" y1="124.66" x2="3.33" y2="124.66" stroke-dasharray="none" stroke-dashoffset="none"/><line x1="3.33" y1="124.66" x2="3.33" y2="3.33" stroke-dasharray="none" stroke-dashoffset="none"/></g></g><text font-size="48px" font-family="Source Sans Pro" font-weight="normal" line-height="48px" letter-spacing="-0.03em" text-align="center" dominant-baseline="mathematical" alignment-baseline="mathematical" text-anchor="middle" transform="translate(42, 35)" fill="#1d1d1d" transform-origin="center center"><tspan y="24px" x="106">Ciphertext
</tspan></text></g><g id="824b36f5-e77f-43b7-33b0-9c4591b2c7ab_svg" class="tl-centered-g" transform="translate(230.97, 333.79) rotate(0.00, 132.51, 73.11)"><defs><mask id="824b36f5-e77f-43b7-33b0-9c4591b2c7ab_clip"><rect x="-100" y="-100" width="465.03" height="346.21" fill="white"/><rect x="132.51" y="73.10" width="0" height="0" rx="4" ry="4" fill="black" opacity="1"/></mask></defs><g pointer-events="none" opacity="1" mask=""><path d="M265.03,0L0,146.21" fill="#1d1d1d" stroke="#1d1d1d" stroke-width="6.66" stroke-dasharray="none" stroke-dashoffset="none" stroke-linecap="round" stroke-linejoin="round" pointer-events="stroke"/><g><path d="M 27.99,146.75517359540808 L 0,146.21 14.46,122.23847226833522" fill="none" stroke="#1d1d1d" stroke-width="6.66" stroke-linecap="round" stroke-linejoin="round" pointer-events="none"/></g></g></g><g text-align="center" text-anchor="middle" transform="translate(336.00, 1072.00) rotate(0.00, 144.00, 64.00)"><g id="8bceb06a-1d20-490e-1047-7d68ed26fb44_svg" class="tl-centered-g"><g pointer-events="none" stroke="#1d1d1d" stroke-width="6.66" stroke-linecap="round"><line x1="3.33" y1="3.33" x2="284.66" y2="3.33" stroke-dasharray="none" stroke-dashoffset="none"/><line x1="284.66" y1="3.33" x2="284.66" y2="124.66" stroke-dasharray="none" stroke-dashoffset="none"/><line x1="284.66" y1="124.66" x2="3.33" y2="124.66" stroke-dasharray="none" stroke-dashoffset="none"/><line x1="3.33" y1="124.66" x2="3.33" y2="3.33" stroke-dasharray="none" stroke-dashoffset="none"/></g></g><text font-size="48px" font-family="Source Sans Pro" font-weight="normal" line-height="48px" letter-spacing="-0.03em" text-align="center" dominant-baseline="mathematical" alignment-baseline="mathematical" text-anchor="middle" transform="translate(42, 35)" fill="#1d1d1d" transform-origin="center center"><tspan y="24px" x="106">Ciphertext
</tspan></text></g><g id="b7d15591-f9ab-4f76-0936-fb39b8f84d42_svg" class="tl-centered-g" transform="translate(480.28, 336.00) rotate(0.00, 44.21, 72.00)"><defs><mask id="b7d15591-f9ab-4f76-0936-fb39b8f84d42_clip"><rect x="-100" y="-100" width="288.42" height="344" fill="white"/><rect x="44.21" y="72" width="0" height="0" rx="4" ry="4" fill="black" opacity="1"/></mask></defs><g pointer-events="none" opacity="1" mask=""><path d="M88.42,0L0,144" fill="#1d1d1d" stroke="#1d1d1d" stroke-width="6.66" stroke-dasharray="none" stroke-dashoffset="none" stroke-linecap="round" stroke-linejoin="round" pointer-events="stroke"/><g><path d="M 24.61,130.66149774284457 L 0,144 0.75,116.0102594738523" fill="none" stroke="#1d1d1d" stroke-width="6.66" stroke-linecap="round" stroke-linejoin="round" pointer-events="none"/></g></g></g><g text-align="center" text-anchor="middle" transform="translate(656.00, 1072.00) rotate(0.00, 144.00, 64.00)"><g id="2e2ea83a-d957-4c2e-27c3-73bff4dedd16_svg" class="tl-centered-g"><g pointer-events="none" stroke="#1d1d1d" stroke-width="6.66" stroke-linecap="round"><line x1="3.33" y1="3.33" x2="284.66" y2="3.33" stroke-dasharray="none" stroke-dashoffset="none"/><line x1="284.66" y1="3.33" x2="284.66" y2="124.66" stroke-dasharray="none" stroke-dashoffset="none"/><line x1="284.66" y1="124.66" x2="3.33" y2="124.66" stroke-dasharray="none" stroke-dashoffset="none"/><line x1="3.33" y1="124.66" x2="3.33" y2="3.33" stroke-dasharray="none" stroke-dashoffset="none"/></g></g><text font-size="48px" font-family="Source Sans Pro" font-weight="normal" line-height="48px" letter-spacing="-0.03em" text-align="center" dominant-baseline="mathematical" alignment-baseline="mathematical" text-anchor="middle" transform="translate(42, 35)" fill="#1d1d1d" transform-origin="center center"><tspan y="24px" x="106">Ciphertext
</tspan></text></g><g id="c99be47c-fdfb-4b41-1cbd-693669ce294a_svg" class="tl-centered-g" transform="translate(645.09, 336.00) rotate(0.00, 41.72, 72.00)"><defs><mask id="c99be47c-fdfb-4b41-1cbd-693669ce294a_clip"><rect x="-100" y="-100" width="283.44" height="344" fill="white"/><rect x="41.72" y="72" width="0" height="0" rx="4" ry="4" fill="black" opacity="1"/></mask></defs><g pointer-events="none" opacity="1" mask=""><path d="M0,0L83.44,144" fill="#1d1d1d" stroke="#1d1d1d" stroke-width="6.66" stroke-dasharray="none" stroke-dashoffset="none" stroke-linecap="round" stroke-linejoin="round" pointer-events="stroke"/><g><path d="M 83.39,116.0000344737497 L 83.44,144 59.16,130.0380684733352" fill="none" stroke="#1d1d1d" stroke-width="6.66" stroke-linecap="round" stroke-linejoin="round" pointer-events="none"/></g></g></g><g id="3db15e2d-74e2-4442-097b-ff0042c71841_svg" class="tl-centered-g" transform="translate(720.00, 334.92) rotate(0.00, 129.12, 72.54)"><defs><mask id="3db15e2d-74e2-4442-097b-ff0042c71841_clip"><rect x="-100" y="-100" width="458.24" height="345.08" fill="white"/><rect x="129.12" y="72.54" width="0" height="0" rx="4" ry="4" fill="black" opacity="1"/></mask></defs><g pointer-events="none" opacity="1" mask=""><path d="M0,0L258.24,145.08" fill="#1d1d1d" stroke="#1d1d1d" stroke-width="6.66" stroke-dasharray="none" stroke-dashoffset="none" stroke-linecap="round" stroke-linejoin="round" pointer-events="stroke"/><g><path d="M 243.95,120.99730118032791 L 258.24,145.08 230.24,145.40868345878417" fill="none" stroke="#1d1d1d" stroke-width="6.66" stroke-linecap="round" stroke-linejoin="round" pointer-events="none"/></g></g></g><text font-size="48px" font-family="Source Sans Pro" font-weight="normal" line-height="48px" letter-spacing="-0.03em" text-align="center" dominant-baseline="mathematical" alignment-baseline="mathematical" text-anchor="middle" fill="#1d1d1d" transform="translate(1136.00, 528.00) rotate(0.00, 21.00, 29.00)"><tspan y="24px" x="25">...
</tspan></text><g text-align="center" text-anchor="middle" transform="translate(467.82, 624.00) rotate(0.00, 4.21, 72.00)"><g id="f4e65309-8ea2-4cdf-07af-7de84e8fabe3_svg" class="tl-centered-g"><defs><mask id="f4e65309-8ea2-4cdf-07af-7de84e8fabe3_clip"><rect x="-100" y="-100" width="208.43" height="344" fill="white"/><rect x="-80.31657573091552" y="49.50" width="169.06" height="44.98" rx="3.10" ry="3.10" fill="black" opacity="1"/></mask></defs><g pointer-events="none" opacity="1" mask="url(#f4e65309-8ea2-4cdf-07af-7de84e8fabe3_clip)"><path d="M8.43,0L0,144" fill="#1d1d1d" stroke="#1d1d1d" stroke-width="6.66" stroke-dasharray="none" stroke-dashoffset="none" stroke-linecap="round" stroke-linejoin="round" pointer-events="stroke"/><g><path d="M 15.39,120.61091642423641 L 0,144 -12.558937896581888,118.97455137445486" fill="none" stroke="#1d1d1d" stroke-width="6.66" stroke-linecap="round" stroke-linejoin="round" pointer-events="none"/></g></g></g><text font-size="48px" font-family="Source Sans Pro" font-weight="normal" line-height="48px" letter-spacing="-0.03em" text-align="left" dominant-baseline="mathematical" alignment-baseline="mathematical" text-anchor="start" transform="translate(-80.31157573091552, 49.50)" fill="#1d1d1d" transform-origin="center center"><tspan y="24px" x="4">&lt;at 0xF4...&gt;
</tspan></text></g><text font-size="48px" font-family="Source Sans Pro" font-weight="normal" line-height="48px" letter-spacing="-0.03em" text-align="center" dominant-baseline="mathematical" alignment-baseline="mathematical" text-anchor="middle" fill="#1d1d1d" transform="translate(976.00, 624.00) rotate(0.00, 21.00, 29.00)"><tspan y="24px" x="25">...
</tspan></text><g id="9827213d-059b-40fb-2acc-b2497fb673bf_svg" class="tl-centered-g" transform="translate(172.84, 912.00) rotate(0.00, 106.33, 72.00)"><defs><mask id="9827213d-059b-40fb-2acc-b2497fb673bf_clip"><rect x="-100" y="-100" width="412.65" height="344" fill="white"/><rect x="106.32" y="72" width="0" height="0" rx="4" ry="4" fill="black" opacity="1"/></mask></defs><g pointer-events="none" opacity="1" mask=""><path d="M212.65,0L0,144" fill="#1d1d1d" stroke="#1d1d1d" stroke-width="6.66" stroke-dasharray="none" stroke-dashoffset="none" stroke-linecap="round" stroke-linejoin="round" pointer-events="stroke"/><g><path d="M 27.92,141.99580897273793 L 0,144 12.22,118.81139143167913" fill="none" stroke="#1d1d1d" stroke-width="6.66" stroke-linecap="round" stroke-linejoin="round" pointer-events="none"/></g></g></g><text font-size="48px" font-family="Source Sans Pro" font-weight="normal" line-height="48px" letter-spacing="-0.03em" text-align="center" dominant-baseline="mathematical" alignment-baseline="mathematical" text-anchor="middle" fill="#1d1d1d" transform="translate(720.00, 624.00) rotate(0.00, 21.00, 29.00)"><tspan y="24px" x="25">...
</tspan></text><g id="6354132d-1d03-4b2e-12df-c6ba561ce198_svg" class="tl-centered-g" transform="translate(575.26, 912.00) rotate(0.00, 107.16, 72.00)"><defs><mask id="6354132d-1d03-4b2e-12df-c6ba561ce198_clip"><rect x="-100" y="-100" width="414.32" height="344" fill="white"/><rect x="107.16" y="72" width="0" height="0" rx="4" ry="4" fill="black" opacity="1"/></mask></defs><g pointer-events="none" opacity="1" mask=""><path d="M0,0L214.32,144" fill="#1d1d1d" stroke="#1d1d1d" stroke-width="6.66" stroke-dasharray="none" stroke-dashoffset="none" stroke-linecap="round" stroke-linejoin="round" pointer-events="stroke"/><g><path d="M 202.00,118.8559035865184 L 214.32,144 186.38,142.09710413363547" fill="none" stroke="#1d1d1d" stroke-width="6.66" stroke-linecap="round" stroke-linejoin="round" pointer-events="none"/></g></g></g><text font-size="48px" font-family="Source Sans Pro" font-weight="normal" line-height="48px" letter-spacing="-0.03em" text-align="center" dominant-baseline="mathematical" alignment-baseline="mathematical" text-anchor="middle" fill="#1d1d1d" transform="translate(176.00, 624.00) rotate(0.00, 21.00, 29.00)"><tspan y="24px" x="25">...
</tspan></text><g id="1666f7df-84b7-40ce-0d18-7728d1aa6b25_svg" class="tl-centered-g" transform="translate(483.46, 912.00) rotate(0.00, 3.89, 72.00)"><defs><mask id="1666f7df-84b7-40ce-0d18-7728d1aa6b25_clip"><rect x="-100" y="-100" width="207.78" height="344" fill="white"/><rect x="3.89" y="72" width="0" height="0" rx="4" ry="4" fill="black" opacity="1"/></mask></defs><g pointer-events="none" opacity="1" mask=""><path d="M0,0L7.78,144" fill="#1d1d1d" stroke="#1d1d1d" stroke-width="6.66" stroke-dasharray="none" stroke-dashoffset="none" stroke-linecap="round" stroke-linejoin="round" pointer-events="stroke"/><g><path d="M 20.45,119.03131505578386 L 7.78,144 -7.507807683498647,120.54188975572926" fill="none" stroke="#1d1d1d" stroke-width="6.66" stroke-linecap="round" stroke-linejoin="round" pointer-events="none"/></g></g></g><g text-align="center" text-anchor="middle" transform="translate(295.72, 697.95) rotate(0.00, 41.34, 74.10)"><g id="1c1ee946-eff9-4922-06ea-3a315422aaa2_svg" class="tl-centered-g"><defs><mask id="1c1ee946-eff9-4922-06ea-3a315422aaa2_clip"><rect x="-100" y="-100" width="282.67" height="348.20" fill="white"/><rect x="-52.510176211002424" y="36.36" width="106" height="58" rx="4" ry="4" fill="black" opacity="1"/></mask></defs><g pointer-events="none" opacity="1" mask="url(#1c1ee946-eff9-4922-06ea-3a315422aaa2_clip)"><path d="M 64.67 148.2 A 74.47 74.47 0 0 1 82.68 0.35" fill="none" stroke="#36b24d" stroke-width="6.66" stroke-dasharray="none" stroke-dashoffset="none" stroke-linecap="round" stroke-linejoin="round" pointer-events="none"/><g><path d="M 58.35,-13.521759528193346 L 82.68,0.35 58.50,14.477850097776855" fill="none" stroke="#36b24d" stroke-width="6.66" stroke-linecap="round" stroke-linejoin="round" pointer-events="none"/></g></g></g><text font-size="48px" font-family="Source Sans Pro" font-weight="normal" line-height="48px" letter-spacing="-0.03em" text-align="left" dominant-baseline="mathematical" alignment-baseline="mathematical" text-anchor="start" transform="translate(-52.51, 36.36)" fill="#36b24d" transform-origin="center center"><tspan y="24px" x="4">Hash
</tspan></text></g></svg>