<?xml version="1.0" encoding="UTF-8" standalone="no"?>
<!DOCTYPE svg PUBLIC "-//W3C//DTD SVG 1.1//EN"
 "http://www.w3.org/Graphics/SVG/1.1/DTD/svg11.dtd">
<!-- Generated by graphviz version 2.44.0 ()
 -->
<!-- Title: G Pages: 1 -->
<svg width="180pt" height="141pt"
 viewBox="0.00 0.00 180.00 141.00" xmlns="http://www.w3.org/2000/svg" xmlns:xlink="http://www.w3.org/1999/xlink">
<g id="graph0" class="graph" transform="scale(1 1) rotate(0) translate(4 137)">
<title>G</title>
<polygon fill="white" stroke="transparent" points="-4,4 -4,-137 176,-137 176,4 -4,4"/>
<!-- table -->
<g id="node1" class="node">
<title>table</title>
<polygon fill="none" stroke="transparent" points="0,-95.5 0,-132.5 90,-132.5 90,-95.5 0,-95.5"/>
<text text-anchor="start" x="11" y="-110.3" font-family="Helvetica,sans-Serif" font-size="14.00">Visibilty</text>
<polygon fill="none" stroke="transparent" points="90,-95.5 90,-132.5 150,-132.5 150,-95.5 90,-95.5"/>
<text text-anchor="start" x="104.5" y="-110.3" font-family="Helvetica,sans-Serif" font-size="14.00">Noun</text>
<polygon fill="none" stroke="black" points="0,-36.5 0,-95.5 90,-95.5 90,-36.5 0,-36.5"/>
<text text-anchor="start" x="11" y="-62.3" font-family="Helvetica,sans-Serif" font-size="14.00">Decrypted</text>
<polygon fill="none" stroke="black" points="90,-58.5 90,-95.5 150,-95.5 150,-58.5 90,-58.5"/>
<text text-anchor="start" x="101" y="-73.3" font-family="Helvetica,sans-Serif" font-size="14.00">Files</text>
<polygon fill="none" stroke="black" points="90,0.5 90,-58.5 150,-58.5 150,0.5 90,0.5"/>
<text text-anchor="start" x="104.5" y="-25.3" font-family="Helvetica,sans-Serif" font-size="14.00">Data</text>
<polygon fill="none" stroke="transparent" points="150,-36.5 150,-58.5 172,-58.5 172,-36.5 150,-36.5"/>
<polygon fill="none" stroke="black" points="0,0.5 0,-36.5 90,-36.5 90,0.5 0,0.5"/>
<text text-anchor="start" x="11" y="-14.3" font-family="Helvetica,sans-Serif" font-size="14.00">Encrypted</text>
</g>
</g>
</svg>
