<?xml version="1.0" encoding="UTF-8" standalone="no"?>
<!DOCTYPE svg PUBLIC "-//W3C//DTD SVG 1.1//EN"
 "http://www.w3.org/Graphics/SVG/1.1/DTD/svg11.dtd">
<!-- Generated by graphviz version 2.44.0 ()
 -->
<!-- Title: G Pages: 1 -->
<svg width="937pt" height="608pt"
 viewBox="0.00 0.00 937.00 608.00" xmlns="http://www.w3.org/2000/svg" xmlns:xlink="http://www.w3.org/1999/xlink">
<g id="graph0" class="graph" transform="scale(1 1) rotate(0) translate(4 604)">
<title>G</title>
<polygon fill="white" stroke="#000000" points="-4,4 -4,-604 933,-604 933,4 -4,4"/>
<g id="clust1" class="cluster">
<title>cluster_external</title>
<path fill="#de77ae" stroke="#de77ae" d="M414,-517C414,-517 674,-517 674,-517 680,-517 686,-523 686,-529 686,-529 686,-580 686,-580 686,-586 680,-592 674,-592 674,-592 414,-592 414,-592 408,-592 402,-586 402,-580 402,-580 402,-529 402,-529 402,-523 408,-517 414,-517"/>
<text text-anchor="middle" x="544" y="-576.8" font-family="Helvetica,sans-Serif" font-size="14.00" fill="#fde0ef">External</text>
</g>
<g id="clust2" class="cluster">
<title>cluster_entry_dir</title>
<path fill="#c51b7d" stroke="#c51b7d" d="M257,-329C257,-329 825,-329 825,-329 831,-329 837,-335 837,-341 837,-341 837,-431 837,-431 837,-437 831,-443 825,-443 825,-443 257,-443 257,-443 251,-443 245,-437 245,-431 245,-431 245,-341 245,-341 245,-335 251,-329 257,-329"/>
<text text-anchor="middle" x="541" y="-427.8" font-family="Helvetica,sans-Serif" font-size="14.00" fill="#fde0ef">Private Directory</text>
</g>
<g id="clust3" class="cluster">
<title>cluster_docs_ptr</title>
<path fill="#de77ae" stroke="#de77ae" d="M265,-337C265,-337 525,-337 525,-337 531,-337 537,-343 537,-349 537,-349 537,-400 537,-400 537,-406 531,-412 525,-412 525,-412 265,-412 265,-412 259,-412 253,-406 253,-400 253,-400 253,-349 253,-349 253,-343 259,-337 265,-337"/>
<text text-anchor="middle" x="395" y="-396.8" font-family="Helvetica,sans-Serif" font-size="14.00" fill="#fde0ef">Documents/</text>
</g>
<g id="clust4" class="cluster">
<title>cluster_images_ptr</title>
<path fill="#de77ae" stroke="#de77ae" d="M557,-337C557,-337 817,-337 817,-337 823,-337 829,-343 829,-349 829,-349 829,-400 829,-400 829,-406 823,-412 817,-412 817,-412 557,-412 557,-412 551,-412 545,-406 545,-400 545,-400 545,-349 545,-349 545,-343 551,-337 557,-337"/>
<text text-anchor="middle" x="687" y="-396.8" font-family="Helvetica,sans-Serif" font-size="14.00" fill="#fde0ef">Images/</text>
</g>
<g id="clust5" class="cluster">
<title>cluster_docs_dir</title>
<path fill="#c51b7d" stroke="#c51b7d" d="M20,-149C20,-149 601,-149 601,-149 607,-149 613,-155 613,-161 613,-161 613,-251 613,-251 613,-257 607,-263 601,-263 601,-263 20,-263 20,-263 14,-263 8,-257 8,-251 8,-251 8,-161 8,-161 8,-155 14,-149 20,-149"/>
<text text-anchor="middle" x="310.5" y="-247.8" font-family="Helvetica,sans-Serif" font-size="14.00" fill="#fde0ef">Private Directory</text>
</g>
<g id="clust6" class="cluster">
<title>cluster_thesis_ptr</title>
<path fill="#de77ae" stroke="#de77ae" d="M41,-157C41,-157 301,-157 301,-157 307,-157 313,-163 313,-169 313,-169 313,-220 313,-220 313,-226 307,-232 301,-232 301,-232 41,-232 41,-232 35,-232 29,-226 29,-220 29,-220 29,-169 29,-169 29,-163 35,-157 41,-157"/>
<text text-anchor="middle" x="171" y="-216.8" font-family="Helvetica,sans-Serif" font-size="14.00" fill="#fde0ef">Thesis.tex</text>
</g>
<g id="clust7" class="cluster">
<title>cluster_notes_ptr</title>
<path fill="#de77ae" stroke="#de77ae" d="M333,-157C333,-157 593,-157 593,-157 599,-157 605,-163 605,-169 605,-169 605,-220 605,-220 605,-226 599,-232 593,-232 593,-232 333,-232 333,-232 327,-232 321,-226 321,-220 321,-220 321,-169 321,-169 321,-163 327,-157 333,-157"/>
<text text-anchor="middle" x="463" y="-216.8" font-family="Helvetica,sans-Serif" font-size="14.00" fill="#fde0ef">Notes.md</text>
</g>
<g id="clust8" class="cluster">
<title>cluster_images_dir</title>
<path fill="#c51b7d" stroke="#c51b7d" d="M633,-149C633,-149 909,-149 909,-149 915,-149 921,-155 921,-161 921,-161 921,-251 921,-251 921,-257 915,-263 909,-263 909,-263 633,-263 633,-263 627,-263 621,-257 621,-251 621,-251 621,-161 621,-161 621,-155 627,-149 633,-149"/>
<text text-anchor="middle" x="771" y="-247.8" font-family="Helvetica,sans-Serif" font-size="14.00" fill="#fde0ef">Private Directory</text>
</g>
<g id="clust9" class="cluster">
<title>cluster_hawaii_ptr</title>
<path fill="#de77ae" stroke="#de77ae" d="M641,-157C641,-157 901,-157 901,-157 907,-157 913,-163 913,-169 913,-169 913,-220 913,-220 913,-226 907,-232 901,-232 901,-232 641,-232 641,-232 635,-232 629,-226 629,-220 629,-220 629,-169 629,-169 629,-163 635,-157 641,-157"/>
<text text-anchor="middle" x="771" y="-216.8" font-family="Helvetica,sans-Serif" font-size="14.00" fill="#fde0ef">hawaii.png</text>
</g>
<g id="clust10" class="cluster">
<title>cluster_thesis_file</title>
<path fill="#4d9221" stroke="#4d9221" d="M114,-8C114,-8 197,-8 197,-8 203,-8 209,-14 209,-20 209,-20 209,-71 209,-71 209,-77 203,-83 197,-83 197,-83 114,-83 114,-83 108,-83 102,-77 102,-71 102,-71 102,-20 102,-20 102,-14 108,-8 114,-8"/>
<text text-anchor="middle" x="155.5" y="-67.8" font-family="Helvetica,sans-Serif" font-size="14.00" fill="#e6f5d0">Private File</text>
</g>
<g id="clust11" class="cluster">
<title>cluster_notes_file</title>
<path fill="#4d9221" stroke="#4d9221" d="M406,-8C406,-8 489,-8 489,-8 495,-8 501,-14 501,-20 501,-20 501,-71 501,-71 501,-77 495,-83 489,-83 489,-83 406,-83 406,-83 400,-83 394,-77 394,-71 394,-71 394,-20 394,-20 394,-14 400,-8 406,-8"/>
<text text-anchor="middle" x="447.5" y="-67.8" font-family="Helvetica,sans-Serif" font-size="14.00" fill="#e6f5d0">Private File</text>
</g>
<g id="clust12" class="cluster">
<title>cluster_hawaii_file</title>
<path fill="#4d9221" stroke="#4d9221" d="M715,-8C715,-8 798,-8 798,-8 804,-8 810,-14 810,-20 810,-20 810,-71 810,-71 810,-77 804,-83 798,-83 798,-83 715,-83 715,-83 709,-83 703,-77 703,-71 703,-71 703,-20 703,-20 703,-14 709,-8 715,-8"/>
<text text-anchor="middle" x="756.5" y="-67.8" font-family="Helvetica,sans-Serif" font-size="14.00" fill="#e6f5d0">Private File</text>
</g>
<!-- external_nameaccum -->
<g id="node1" class="node">
<title>external_nameaccum</title>
<polygon fill="#fde0ef" stroke="#c51b7d" points="677.5,-561 548.5,-561 548.5,-525 677.5,-525 677.5,-561"/>
<text text-anchor="middle" x="613" y="-539.3" font-family="Helvetica,sans-Serif" font-size="14.00" fill="#c51b7d">NameAccumulator</text>
</g>
<!-- external_hidden -->
<!-- docs_nameaccum -->
<g id="node4" class="node">
<title>docs_nameaccum</title>
<polygon fill="#fde0ef" stroke="#c51b7d" points="528.5,-381 399.5,-381 399.5,-345 528.5,-345 528.5,-381"/>
<text text-anchor="middle" x="464" y="-359.3" font-family="Helvetica,sans-Serif" font-size="14.00" fill="#c51b7d">NameAccumulator</text>
</g>
<!-- external_hidden&#45;&gt;docs_nameaccum -->
<g id="edge1" class="edge">
<title>external_hidden&#45;&gt;docs_nameaccum:e</title>
<path fill="none" stroke="black" d="M531.66,-517C533.34,-500.1 535.47,-476.65 536.92,-453.13"/>
<polygon fill="black" stroke="black" points="540.42,-453.18 537.5,-443 533.43,-452.78 540.42,-453.18"/>
</g>
<!-- external_content_key -->
<g id="node3" class="node">
<title>external_content_key</title>
<polygon fill="#fde0ef" stroke="#c51b7d" points="509.5,-561 410.5,-561 410.5,-525 509.5,-525 509.5,-561"/>
<text text-anchor="middle" x="460" y="-539.3" font-family="Helvetica,sans-Serif" font-size="14.00" fill="#c51b7d">Content Key</text>
</g>
<!-- docs_ptr_hidden -->
<!-- thesis_nameaccum -->
<g id="node10" class="node">
<title>thesis_nameaccum</title>
<polygon fill="#fde0ef" stroke="#c51b7d" points="304.5,-201 175.5,-201 175.5,-165 304.5,-165 304.5,-201"/>
<text text-anchor="middle" x="240" y="-179.3" font-family="Helvetica,sans-Serif" font-size="14.00" fill="#c51b7d">NameAccumulator</text>
</g>
<!-- docs_ptr_hidden&#45;&gt;thesis_nameaccum -->
<g id="edge2" class="edge">
<title>docs_ptr_hidden&#45;&gt;thesis_nameaccum</title>
<path fill="none" stroke="black" d="M373.71,-337C372.64,-334.23 371.41,-331.5 370,-329 362.47,-315.62 343.92,-293.48 323.12,-270.48"/>
<polygon fill="black" stroke="black" points="325.62,-268.03 316.29,-263 320.44,-272.75 325.62,-268.03"/>
</g>
<!-- docs_content_key -->
<g id="node6" class="node">
<title>docs_content_key</title>
<polygon fill="#fde0ef" stroke="#c51b7d" points="360.5,-381 261.5,-381 261.5,-345 360.5,-345 360.5,-381"/>
<text text-anchor="middle" x="311" y="-359.3" font-family="Helvetica,sans-Serif" font-size="14.00" fill="#c51b7d">Content Key</text>
</g>
<!-- images_nameaccum -->
<g id="node7" class="node">
<title>images_nameaccum</title>
<polygon fill="#fde0ef" stroke="#c51b7d" points="820.5,-381 691.5,-381 691.5,-345 820.5,-345 820.5,-381"/>
<text text-anchor="middle" x="756" y="-359.3" font-family="Helvetica,sans-Serif" font-size="14.00" fill="#c51b7d">NameAccumulator</text>
</g>
<!-- images_ptr_hidden -->
<!-- hawaii_ptr_hidden -->
<!-- images_ptr_hidden&#45;&gt;hawaii_ptr_hidden -->
<g id="edge5" class="edge">
<title>images_ptr_hidden&#45;&gt;hawaii_ptr_hidden</title>
<path fill="none" stroke="black" d="M679.01,-337C680.17,-334.22 681.5,-331.5 683,-329 702.04,-297.38 724.18,-298.98 741.14,-271.91"/>
<polygon fill="black" stroke="black" points="744.28,-273.45 746,-263 738.14,-270.1 744.28,-273.45"/>
</g>
<!-- images_content_key -->
<g id="node9" class="node">
<title>images_content_key</title>
<polygon fill="#fde0ef" stroke="#c51b7d" points="652.5,-381 553.5,-381 553.5,-345 652.5,-345 652.5,-381"/>
<text text-anchor="middle" x="603" y="-359.3" font-family="Helvetica,sans-Serif" font-size="14.00" fill="#c51b7d">Content Key</text>
</g>
<!-- thesis_ptr_hidden -->
<!-- thesis_content -->
<g id="node20" class="node">
<title>thesis_content</title>
<polygon fill="#e6f5d0" stroke="#4d9221" points="190.5,-52 121.5,-52 121.5,-16 190.5,-16 190.5,-52"/>
<text text-anchor="middle" x="156" y="-30.3" font-family="Helvetica,sans-Serif" font-size="14.00" fill="#4d9221">Content</text>
</g>
<!-- thesis_ptr_hidden&#45;&gt;thesis_content -->
<g id="edge3" class="edge">
<title>thesis_ptr_hidden&#45;&gt;thesis_content</title>
<path fill="none" stroke="black" d="M156,-157C156,-139.56 156,-115.55 156,-93.43"/>
<polygon fill="black" stroke="black" points="159.5,-93 156,-83 152.5,-93 159.5,-93"/>
</g>
<!-- thesis_content_key -->
<g id="node12" class="node">
<title>thesis_content_key</title>
<polygon fill="#fde0ef" stroke="#c51b7d" points="136.5,-201 37.5,-201 37.5,-165 136.5,-165 136.5,-201"/>
<text text-anchor="middle" x="87" y="-179.3" font-family="Helvetica,sans-Serif" font-size="14.00" fill="#c51b7d">Content Key</text>
</g>
<!-- notes_nameaccum -->
<g id="node13" class="node">
<title>notes_nameaccum</title>
<polygon fill="#fde0ef" stroke="#c51b7d" points="596.5,-201 467.5,-201 467.5,-165 596.5,-165 596.5,-201"/>
<text text-anchor="middle" x="532" y="-179.3" font-family="Helvetica,sans-Serif" font-size="14.00" fill="#c51b7d">NameAccumulator</text>
</g>
<!-- notes_ptr_hidden -->
<!-- notes_content -->
<g id="node21" class="node">
<title>notes_content</title>
<polygon fill="#e6f5d0" stroke="#4d9221" points="482.5,-52 413.5,-52 413.5,-16 482.5,-16 482.5,-52"/>
<text text-anchor="middle" x="448" y="-30.3" font-family="Helvetica,sans-Serif" font-size="14.00" fill="#4d9221">Content</text>
</g>
<!-- notes_ptr_hidden&#45;&gt;notes_content -->
<g id="edge4" class="edge">
<title>notes_ptr_hidden&#45;&gt;notes_content</title>
<path fill="none" stroke="black" d="M448,-157C448,-139.56 448,-115.55 448,-93.43"/>
<polygon fill="black" stroke="black" points="451.5,-93 448,-83 444.5,-93 451.5,-93"/>
</g>
<!-- notes_content_key -->
<g id="node15" class="node">
<title>notes_content_key</title>
<polygon fill="#fde0ef" stroke="#c51b7d" points="428.5,-201 329.5,-201 329.5,-165 428.5,-165 428.5,-201"/>
<text text-anchor="middle" x="379" y="-179.3" font-family="Helvetica,sans-Serif" font-size="14.00" fill="#c51b7d">Content Key</text>
</g>
<!-- docs_dir_hidden -->
<!-- hawaii_nameaccum -->
<g id="node17" class="node">
<title>hawaii_nameaccum</title>
<polygon fill="#fde0ef" stroke="#c51b7d" points="904.5,-201 775.5,-201 775.5,-165 904.5,-165 904.5,-201"/>
<text text-anchor="middle" x="840" y="-179.3" font-family="Helvetica,sans-Serif" font-size="14.00" fill="#c51b7d">NameAccumulator</text>
</g>
<!-- hawaii_content -->
<g id="node22" class="node">
<title>hawaii_content</title>
<polygon fill="#e6f5d0" stroke="#4d9221" points="790.5,-52 721.5,-52 721.5,-16 790.5,-16 790.5,-52"/>
<text text-anchor="middle" x="756" y="-30.3" font-family="Helvetica,sans-Serif" font-size="14.00" fill="#4d9221">Content</text>
</g>
<!-- hawaii_ptr_hidden&#45;&gt;hawaii_content -->
<g id="edge6" class="edge">
<title>hawaii_ptr_hidden&#45;&gt;hawaii_content</title>
<path fill="none" stroke="black" d="M756,-157C756,-139.56 756,-115.55 756,-93.43"/>
<polygon fill="black" stroke="black" points="759.5,-93 756,-83 752.5,-93 759.5,-93"/>
</g>
<!-- hawaii_content_key -->
<g id="node19" class="node">
<title>hawaii_content_key</title>
<polygon fill="#fde0ef" stroke="#c51b7d" points="736.5,-201 637.5,-201 637.5,-165 736.5,-165 736.5,-201"/>
<text text-anchor="middle" x="687" y="-179.3" font-family="Helvetica,sans-Serif" font-size="14.00" fill="#c51b7d">Content Key</text>
</g>
</g>
</svg>
