<?xml version="1.0" encoding="UTF-8" standalone="no"?>
<!DOCTYPE svg PUBLIC "-//W3C//DTD SVG 1.1//EN"
 "http://www.w3.org/Graphics/SVG/1.1/DTD/svg11.dtd">
<!-- Generated by graphviz version 2.44.0 ()
 -->
<!-- Title: G Pages: 1 -->
<svg width="826pt" height="608pt"
 viewBox="0.00 0.00 826.00 608.00" xmlns="http://www.w3.org/2000/svg" xmlns:xlink="http://www.w3.org/1999/xlink">
<g id="graph0" class="graph" transform="scale(1 1) rotate(0) translate(4 604)">
<title>G</title>
<polygon fill="white" stroke="#000000" points="-4,4 -4,-604 822,-604 822,4 -4,4"/>
<g id="clust1" class="cluster">
<title>cluster_external</title>
<path fill="#de77ae" stroke="#de77ae" d="M347,-517C347,-517 570,-517 570,-517 576,-517 582,-523 582,-529 582,-529 582,-580 582,-580 582,-586 576,-592 570,-592 570,-592 347,-592 347,-592 341,-592 335,-586 335,-580 335,-580 335,-529 335,-529 335,-523 341,-517 347,-517"/>
<text text-anchor="middle" x="458.5" y="-576.8" font-family="Helvetica,sans-Serif" font-size="14.00" fill="#fde0ef">External</text>
</g>
<g id="clust2" class="cluster">
<title>cluster_entry_dir</title>
<path fill="#c51b7d" stroke="#c51b7d" d="M227,-329C227,-329 721,-329 721,-329 727,-329 733,-335 733,-341 733,-341 733,-431 733,-431 733,-437 727,-443 721,-443 721,-443 227,-443 227,-443 221,-443 215,-437 215,-431 215,-431 215,-341 215,-341 215,-335 221,-329 227,-329"/>
<text text-anchor="middle" x="474" y="-427.8" font-family="Helvetica,sans-Serif" font-size="14.00" fill="#fde0ef">Private Directory</text>
</g>
<g id="clust3" class="cluster">
<title>cluster_docs_ptr</title>
<path fill="#de77ae" stroke="#de77ae" d="M235,-337C235,-337 458,-337 458,-337 464,-337 470,-343 470,-349 470,-349 470,-400 470,-400 470,-406 464,-412 458,-412 458,-412 235,-412 235,-412 229,-412 223,-406 223,-400 223,-400 223,-349 223,-349 223,-343 229,-337 235,-337"/>
<text text-anchor="middle" x="346.5" y="-396.8" font-family="Helvetica,sans-Serif" font-size="14.00" fill="#fde0ef">Documents/</text>
</g>
<g id="clust4" class="cluster">
<title>cluster_images_ptr</title>
<path fill="#de77ae" stroke="#de77ae" d="M490,-337C490,-337 713,-337 713,-337 719,-337 725,-343 725,-349 725,-349 725,-400 725,-400 725,-406 719,-412 713,-412 713,-412 490,-412 490,-412 484,-412 478,-406 478,-400 478,-400 478,-349 478,-349 478,-343 484,-337 490,-337"/>
<text text-anchor="middle" x="601.5" y="-396.8" font-family="Helvetica,sans-Serif" font-size="14.00" fill="#fde0ef">Images/</text>
</g>
<g id="clust5" class="cluster">
<title>cluster_docs_dir</title>
<path fill="#c51b7d" stroke="#c51b7d" d="M20,-149C20,-149 527,-149 527,-149 533,-149 539,-155 539,-161 539,-161 539,-251 539,-251 539,-257 533,-263 527,-263 527,-263 20,-263 20,-263 14,-263 8,-257 8,-251 8,-251 8,-161 8,-161 8,-155 14,-149 20,-149"/>
<text text-anchor="middle" x="273.5" y="-247.8" font-family="Helvetica,sans-Serif" font-size="14.00" fill="#fde0ef">Private Directory</text>
</g>
<g id="clust6" class="cluster">
<title>cluster_thesis_ptr</title>
<path fill="#de77ae" stroke="#de77ae" d="M41,-157C41,-157 264,-157 264,-157 270,-157 276,-163 276,-169 276,-169 276,-220 276,-220 276,-226 270,-232 264,-232 264,-232 41,-232 41,-232 35,-232 29,-226 29,-220 29,-220 29,-169 29,-169 29,-163 35,-157 41,-157"/>
<text text-anchor="middle" x="152.5" y="-216.8" font-family="Helvetica,sans-Serif" font-size="14.00" fill="#fde0ef">Thesis.tex</text>
</g>
<g id="clust7" class="cluster">
<title>cluster_notes_ptr</title>
<path fill="#de77ae" stroke="#de77ae" d="M296,-157C296,-157 519,-157 519,-157 525,-157 531,-163 531,-169 531,-169 531,-220 531,-220 531,-226 525,-232 519,-232 519,-232 296,-232 296,-232 290,-232 284,-226 284,-220 284,-220 284,-169 284,-169 284,-163 290,-157 296,-157"/>
<text text-anchor="middle" x="407.5" y="-216.8" font-family="Helvetica,sans-Serif" font-size="14.00" fill="#fde0ef">Notes.md</text>
</g>
<g id="clust8" class="cluster">
<title>cluster_images_dir</title>
<path fill="#c51b7d" stroke="#c51b7d" d="M559,-149C559,-149 798,-149 798,-149 804,-149 810,-155 810,-161 810,-161 810,-251 810,-251 810,-257 804,-263 798,-263 798,-263 559,-263 559,-263 553,-263 547,-257 547,-251 547,-251 547,-161 547,-161 547,-155 553,-149 559,-149"/>
<text text-anchor="middle" x="678.5" y="-247.8" font-family="Helvetica,sans-Serif" font-size="14.00" fill="#fde0ef">Private Directory</text>
</g>
<g id="clust9" class="cluster">
<title>cluster_hawaii_ptr</title>
<path fill="#de77ae" stroke="#de77ae" d="M567,-157C567,-157 790,-157 790,-157 796,-157 802,-163 802,-169 802,-169 802,-220 802,-220 802,-226 796,-232 790,-232 790,-232 567,-232 567,-232 561,-232 555,-226 555,-220 555,-220 555,-169 555,-169 555,-163 561,-157 567,-157"/>
<text text-anchor="middle" x="678.5" y="-216.8" font-family="Helvetica,sans-Serif" font-size="14.00" fill="#fde0ef">hawaii.png</text>
</g>
<g id="clust10" class="cluster">
<title>cluster_thesis_file</title>
<path fill="#4d9221" stroke="#4d9221" d="M114,-8C114,-8 197,-8 197,-8 203,-8 209,-14 209,-20 209,-20 209,-71 209,-71 209,-77 203,-83 197,-83 197,-83 114,-83 114,-83 108,-83 102,-77 102,-71 102,-71 102,-20 102,-20 102,-14 108,-8 114,-8"/>
<text text-anchor="middle" x="155.5" y="-67.8" font-family="Helvetica,sans-Serif" font-size="14.00" fill="#e6f5d0">Private File</text>
</g>
<g id="clust11" class="cluster">
<title>cluster_notes_file</title>
<path fill="#4d9221" stroke="#4d9221" d="M369,-8C369,-8 452,-8 452,-8 458,-8 464,-14 464,-20 464,-20 464,-71 464,-71 464,-77 458,-83 452,-83 452,-83 369,-83 369,-83 363,-83 357,-77 357,-71 357,-71 357,-20 357,-20 357,-14 363,-8 369,-8"/>
<text text-anchor="middle" x="410.5" y="-67.8" font-family="Helvetica,sans-Serif" font-size="14.00" fill="#e6f5d0">Private File</text>
</g>
<g id="clust12" class="cluster">
<title>cluster_hawaii_file</title>
<path fill="#4d9221" stroke="#4d9221" d="M641,-8C641,-8 724,-8 724,-8 730,-8 736,-14 736,-20 736,-20 736,-71 736,-71 736,-77 730,-83 724,-83 724,-83 641,-83 641,-83 635,-83 629,-77 629,-71 629,-71 629,-20 629,-20 629,-14 635,-8 641,-8"/>
<text text-anchor="middle" x="682.5" y="-67.8" font-family="Helvetica,sans-Serif" font-size="14.00" fill="#e6f5d0">Private File</text>
</g>
<!-- external_namefilter -->
<g id="node1" class="node">
<title>external_namefilter</title>
<polygon fill="#fde0ef" stroke="#c51b7d" points="574,-561 482,-561 482,-525 574,-525 574,-561"/>
<text text-anchor="middle" x="528" y="-539.3" font-family="Helvetica,sans-Serif" font-size="14.00" fill="#c51b7d">Namefilter</text>
</g>
<!-- external_hidden -->
<!-- docs_namefilter -->
<g id="node4" class="node">
<title>docs_namefilter</title>
<polygon fill="#fde0ef" stroke="#c51b7d" points="462,-381 370,-381 370,-345 462,-345 462,-381"/>
<text text-anchor="middle" x="416" y="-359.3" font-family="Helvetica,sans-Serif" font-size="14.00" fill="#c51b7d">Namefilter</text>
</g>
<!-- external_hidden&#45;&gt;docs_namefilter -->
<g id="edge1" class="edge">
<title>external_hidden&#45;&gt;docs_namefilter:e</title>
<path fill="none" stroke="black" d="M464.66,-517C466.34,-500.1 468.47,-476.65 469.92,-453.13"/>
<polygon fill="black" stroke="black" points="473.42,-453.18 470.5,-443 466.43,-452.78 473.42,-453.18"/>
</g>
<!-- external_content_key -->
<g id="node3" class="node">
<title>external_content_key</title>
<polygon fill="#fde0ef" stroke="#c51b7d" points="442.5,-561 343.5,-561 343.5,-525 442.5,-525 442.5,-561"/>
<text text-anchor="middle" x="393" y="-539.3" font-family="Helvetica,sans-Serif" font-size="14.00" fill="#c51b7d">Content Key</text>
</g>
<!-- docs_ptr_hidden -->
<!-- thesis_namefilter -->
<g id="node10" class="node">
<title>thesis_namefilter</title>
<polygon fill="#fde0ef" stroke="#c51b7d" points="268,-201 176,-201 176,-165 268,-165 268,-201"/>
<text text-anchor="middle" x="222" y="-179.3" font-family="Helvetica,sans-Serif" font-size="14.00" fill="#c51b7d">Namefilter</text>
</g>
<!-- docs_ptr_hidden&#45;&gt;thesis_namefilter -->
<g id="edge2" class="edge">
<title>docs_ptr_hidden&#45;&gt;thesis_namefilter</title>
<path fill="none" stroke="black" d="M343.73,-337C342.66,-334.23 341.42,-331.5 340,-329 322.2,-297.62 307.89,-294.11 286.54,-270.59"/>
<polygon fill="black" stroke="black" points="289.18,-268.29 280,-263 283.87,-272.86 289.18,-268.29"/>
</g>
<!-- docs_content_key -->
<g id="node6" class="node">
<title>docs_content_key</title>
<polygon fill="#fde0ef" stroke="#c51b7d" points="330.5,-381 231.5,-381 231.5,-345 330.5,-345 330.5,-381"/>
<text text-anchor="middle" x="281" y="-359.3" font-family="Helvetica,sans-Serif" font-size="14.00" fill="#c51b7d">Content Key</text>
</g>
<!-- images_namefilter -->
<g id="node7" class="node">
<title>images_namefilter</title>
<polygon fill="#fde0ef" stroke="#c51b7d" points="717,-381 625,-381 625,-345 717,-345 717,-381"/>
<text text-anchor="middle" x="671" y="-359.3" font-family="Helvetica,sans-Serif" font-size="14.00" fill="#c51b7d">Namefilter</text>
</g>
<!-- images_ptr_hidden -->
<!-- hawaii_ptr_hidden -->
<!-- images_ptr_hidden&#45;&gt;hawaii_ptr_hidden -->
<g id="edge5" class="edge">
<title>images_ptr_hidden&#45;&gt;hawaii_ptr_hidden</title>
<path fill="none" stroke="black" d="M612.19,-337C613.32,-334.24 614.59,-331.51 616,-329 633.1,-298.62 652.47,-298.01 667.49,-271.96"/>
<polygon fill="black" stroke="black" points="670.63,-273.51 672,-263 664.38,-270.36 670.63,-273.51"/>
</g>
<!-- images_content_key -->
<g id="node9" class="node">
<title>images_content_key</title>
<polygon fill="#fde0ef" stroke="#c51b7d" points="585.5,-381 486.5,-381 486.5,-345 585.5,-345 585.5,-381"/>
<text text-anchor="middle" x="536" y="-359.3" font-family="Helvetica,sans-Serif" font-size="14.00" fill="#c51b7d">Content Key</text>
</g>
<!-- thesis_ptr_hidden -->
<!-- thesis_content -->
<g id="node20" class="node">
<title>thesis_content</title>
<polygon fill="#e6f5d0" stroke="#4d9221" points="190.5,-52 121.5,-52 121.5,-16 190.5,-16 190.5,-52"/>
<text text-anchor="middle" x="156" y="-30.3" font-family="Helvetica,sans-Serif" font-size="14.00" fill="#4d9221">Content</text>
</g>
<!-- thesis_ptr_hidden&#45;&gt;thesis_content -->
<g id="edge3" class="edge">
<title>thesis_ptr_hidden&#45;&gt;thesis_content</title>
<path fill="none" stroke="black" d="M156,-157C156,-139.56 156,-115.55 156,-93.43"/>
<polygon fill="black" stroke="black" points="159.5,-93 156,-83 152.5,-93 159.5,-93"/>
</g>
<!-- thesis_content_key -->
<g id="node12" class="node">
<title>thesis_content_key</title>
<polygon fill="#fde0ef" stroke="#c51b7d" points="136.5,-201 37.5,-201 37.5,-165 136.5,-165 136.5,-201"/>
<text text-anchor="middle" x="87" y="-179.3" font-family="Helvetica,sans-Serif" font-size="14.00" fill="#c51b7d">Content Key</text>
</g>
<!-- notes_namefilter -->
<g id="node13" class="node">
<title>notes_namefilter</title>
<polygon fill="#fde0ef" stroke="#c51b7d" points="523,-201 431,-201 431,-165 523,-165 523,-201"/>
<text text-anchor="middle" x="477" y="-179.3" font-family="Helvetica,sans-Serif" font-size="14.00" fill="#c51b7d">Namefilter</text>
</g>
<!-- notes_ptr_hidden -->
<!-- notes_content -->
<g id="node21" class="node">
<title>notes_content</title>
<polygon fill="#e6f5d0" stroke="#4d9221" points="445.5,-52 376.5,-52 376.5,-16 445.5,-16 445.5,-52"/>
<text text-anchor="middle" x="411" y="-30.3" font-family="Helvetica,sans-Serif" font-size="14.00" fill="#4d9221">Content</text>
</g>
<!-- notes_ptr_hidden&#45;&gt;notes_content -->
<g id="edge4" class="edge">
<title>notes_ptr_hidden&#45;&gt;notes_content</title>
<path fill="none" stroke="black" d="M411,-157C411,-139.56 411,-115.55 411,-93.43"/>
<polygon fill="black" stroke="black" points="414.5,-93 411,-83 407.5,-93 414.5,-93"/>
</g>
<!-- notes_content_key -->
<g id="node15" class="node">
<title>notes_content_key</title>
<polygon fill="#fde0ef" stroke="#c51b7d" points="391.5,-201 292.5,-201 292.5,-165 391.5,-165 391.5,-201"/>
<text text-anchor="middle" x="342" y="-179.3" font-family="Helvetica,sans-Serif" font-size="14.00" fill="#c51b7d">Content Key</text>
</g>
<!-- docs_dir_hidden -->
<!-- hawaii_namefilter -->
<g id="node17" class="node">
<title>hawaii_namefilter</title>
<polygon fill="#fde0ef" stroke="#c51b7d" points="794,-201 702,-201 702,-165 794,-165 794,-201"/>
<text text-anchor="middle" x="748" y="-179.3" font-family="Helvetica,sans-Serif" font-size="14.00" fill="#c51b7d">Namefilter</text>
</g>
<!-- hawaii_content -->
<g id="node22" class="node">
<title>hawaii_content</title>
<polygon fill="#e6f5d0" stroke="#4d9221" points="716.5,-52 647.5,-52 647.5,-16 716.5,-16 716.5,-52"/>
<text text-anchor="middle" x="682" y="-30.3" font-family="Helvetica,sans-Serif" font-size="14.00" fill="#4d9221">Content</text>
</g>
<!-- hawaii_ptr_hidden&#45;&gt;hawaii_content -->
<g id="edge6" class="edge">
<title>hawaii_ptr_hidden&#45;&gt;hawaii_content</title>
<path fill="none" stroke="black" d="M682,-157C682,-139.56 682,-115.55 682,-93.43"/>
<polygon fill="black" stroke="black" points="685.5,-93 682,-83 678.5,-93 685.5,-93"/>
</g>
<!-- hawaii_content_key -->
<g id="node19" class="node">
<title>hawaii_content_key</title>
<polygon fill="#fde0ef" stroke="#c51b7d" points="662.5,-201 563.5,-201 563.5,-165 662.5,-165 662.5,-201"/>
<text text-anchor="middle" x="613" y="-179.3" font-family="Helvetica,sans-Serif" font-size="14.00" fill="#c51b7d">Content Key</text>
</g>
</g>
</svg>
